<svg id="Layer_1" data-name="Layer 1" xmlns="http://www.w3.org/2000/svg" viewBox="0 0 579.74 639.76"><path d="M151.18,629.84a30,30,0,0,1-42.4,0l-100-100C2.87,525.14,0,517.51,0,509.77a30,30,0,0,1,51.19-21.21L100,537.38V399.82a30,30,0,0,1,8.79-21.2l151.14-151.1V30a30,30,0,1,1,60,0V227.52L469.91,377.58c6.75,6.62,9.87,14.24,9.87,22.24V537.38l48.77-48.77A30,30,0,0,1,571,531L471,631a30,30,0,0,1-42.41,0L328.64,531A30,30,0,1,1,371,488.56l48.77,48.82V412.31L289.87,282.37,159.93,412.31V537.38l48.76-48.77A30,30,0,0,1,251.1,531Z"/></svg>