<?xml version="1.0" standalone="no"?>
<!DOCTYPE svg PUBLIC "-//W3C//DTD SVG 1.1//EN" "http://www.w3.org/Graphics/SVG/1.1/DTD/svg11.dtd">
<svg xmlns="http://www.w3.org/2000/svg">
<metadata>Copyright (C) 2018 by original authors @ fontello.com</metadata>
<defs>
<font id="giddy" horiz-adv-x="1000" >
<font-face font-family="giddy" font-weight="400" font-stretch="normal" units-per-em="1000" ascent="850" descent="-150" />
<missing-glyph horiz-adv-x="1000" />
<glyph glyph-name="check" unicode="&#xe800;" d="M0-150l0 1000 646 0-164-164-318 0 0-672 672 0 0 319 164 164 0-647-1000 0z m234 623l133 131 129-129 361 363 133-132-361-364-133-133z" horiz-adv-x="1000" />

<glyph glyph-name="check-empty" unicode="&#xe801;" d="M0-150l0 1000 1000 0 0-1000-1000 0z m164 164l672 0 0 672-672 0 0-672z" horiz-adv-x="1000" />

<glyph glyph-name="building" unicode="&#xe802;" d="M835 359c15 0 28-12 28-28v-423c0-16-13-28-28-28h-261c-16 0-29 12-29 28v161h-91v-161c0-16-12-28-28-28h-262c-15 0-27 12-27 28v410c0 15 12 27 27 27 17 0 29-12 29-27v-381h204v161c0 15 13 28 29 28h148c15 0 28-13 28-28v-161h204v394c0 16 13 28 29 28z m157-22c11-11 10-30 0-41-6-5-13-7-21-7-8 0-15 2-20 7l-451 455-451-451c-12-11-30-12-40 0-12 11-12 29 0 40l471 471c6 6 12 9 20 9 7 0 14-3 20-9l187-189v99c0 16 13 29 28 29 16 0 29-13 29-29v-156z" horiz-adv-x="1000" />

<glyph glyph-name="business" unicode="&#xe803;" d="M1000 708l0-24v-832h-1000v995l68 0 230 1 1-1z m-178-230c80 47 110 139 121 184l-531 109c138-93 345-234 410-293z m7-56l-18-8-13 15c-41 46-342 250-517 365l-217 1-12 0v-890h896v628c-26-42-64-84-119-111z" horiz-adv-x="1000" />

<glyph glyph-name="clip" unicode="&#xe804;" d="M275-150c-65 0-129 24-178 73-98 99-98 258 0 356l517 517c72 72 188 72 260 0 35-35 54-81 54-130s-19-95-54-130l-477-477-6-6c-41-40-106-39-146 1l-1 1c-20 19-31 45-31 73 0 28 11 54 31 73l248 248c9 10 25 10 35 0 9-10 9-25 0-35l-248-248c-10-10-16-24-16-38 0-15 6-28 16-38l1-1c21-21 55-21 76 0l483 482c26 25 40 59 40 95 0 36-14 70-40 95-53 53-138 53-190 0l-517-517c-79-78-79-207 0-286 79-78 207-78 286 0l517 518c9 9 25 9 35 0 9-10 9-26 0-35l-517-517c-49-50-114-74-178-74z" horiz-adv-x="1000" />

<glyph glyph-name="contacts" unicode="&#xe805;" d="M274 272c-2 21-3 39 11 39 1 0 3 0 4-1-6 61 7 143 94 143 93 0 109-82 110-143 2 1 4 1 5 1 14 0 16-17 16-39 0-20-16-50-29-50-2 0-4 1-6 2-7-18-18-34-30-46h-100c-14 12-26 28-35 45-2 0-3-1-5-1-13 0-32 30-35 50z m526 69c-2-13-14-24-26-24h-240c-4 8-8 14-14 17-2 29-7 52-15 72h282c13 0 22-12 19-26z m-46-166v0l-260 0 0 20c0 1 1 2 2 3 20 6 35 30 42 53h226c12 0 21-10 19-22l-5-33c-2-11-13-21-24-21z m-629 13h-62l-46 308c0 72 58 131 130 131h703c72 0 130-59 130-131l-41-305h-61l41 305c0 38-31 69-69 69h-703c-38 0-68-31-68-69z m-72-41v0h894c13 0 25-5 34-15 8-10 12-23 10-35l-36-247h-910l-36 247c-2 12 2 25 11 35 8 10 20 15 33 15z m754 529v0l-641 0-11 47c-2 5-1 11 3 15 3 4 8 6 13 6h631c5 0 10-2 13-6 3-4 4-9 3-14z m-63 106h-515l-9 48c-1 5 0 10 3 14 3 4 8 6 13 6h500c5 0 10-2 13-6 3-4 4-9 4-13z" horiz-adv-x="1000" />

<glyph glyph-name="uniF104" unicode="&#xe806;" d="M250 850h750c-138 0-250-112-250-250v-750l-62 62-63-62h-62l-63 62-62-62h-63l-62 62-63-62h-62l-63 62-62-62h-63v0 750c0 138 112 250 250 250z m438-250c0 70 23 135 62 188h-500c-103 0-187-85-187-188v-662l62 63 88-89h11l89 89 88-89h11l88 89 88-89h11l89 89v599z m-563-375h313v-62h-313v62z m0 125h313v-62h-313v62z m0 125h313v-62h-313v62z m500-312h-62v62h62v-62z m0 125h-62v62h62v-62z m0 125h-62v62h62v-62z" horiz-adv-x="1000" />

<glyph glyph-name="clock1" unicode="&#xe807;" d="M525 825c260 0 475-215 475-475s-210-475-475-475c-220 0-405 150-460 350h105c55-145 190-250 355-250 205 0 375 170 375 375s-170 375-375 375c-150 0-275-85-340-210l140-140h-325v325l115-115c80 145 235 240 410 240z m-75-250h75v-210l200-120-40-65-235 140v255z" horiz-adv-x="1000" />

<glyph glyph-name="money156" unicode="&#xe808;" d="M103 512v61h383v-61h-383z m637-323l-17-25h-723v582h972v-308l-55-29v223h-862v-413h714c-11-9-23-19-29-30z m-637 215v61h696v-61h-696z m897 2l0 0-15-170-89-73-34 22 78 117c7-1 15 2 20 9 6 9 3 22-6 28-9 6-22 3-28-6-4-7-4-16 0-22l-78-117-33 22 35 111z m-245-250c12 18 54 43 54 43l74-49s-10-48-21-65c-12-18-88-131-88-131l-15 10-22 15-16 10-53 36s75 112 87 131z" horiz-adv-x="1000" />

<glyph glyph-name="location" unicode="&#xe809;" d="M841 366c4-5 6-11 6-19 0-19-16-34-35-34h0-590v-429c0-19-15-34-34-34-19 0-35 15-35 34v932c0 19 16 34 35 34 18 0 34-15 34-33h590c13 0 24-7 30-18 6-10 6-24 0-34l-117-200z m-619 16v0l530 0-96 165c-7 11-7 24 0 35l96 166h-530v-366z" horiz-adv-x="1000" />

<glyph glyph-name="money" unicode="&#xe80a;" d="M235 693c0-13-11-24-24-24h-155c1 11 6 21 14 29l136 137c8 8 18 13 29 15v-157z m-180-617v541h156c42 0 77 34 77 76v157h378c28 0 50-23 50-51v-335c-20 10-42 17-64 21-3 31-28 55-59 55-23 0-42-13-52-31h-355c-14 0-26-12-26-27 0-15 12-26 26-26h267c-23-14-45-30-64-49-13-12-24-26-34-40h-169c-14 0-26-12-26-27 0-15 12-27 26-27h140c-7-16-12-33-15-50-23-3-43-18-50-38h-74c-15 0-27-12-27-27 0-15 12-27 27-27h79c10-15 26-25 45-27 4-24 13-47 23-69 9-17 20-34 32-50h-260c-28 0-51 23-51 51z m343 627c-14 0-26-12-26-27 0-15 12-27 26-27h190c15 0 27 12 27 27 0 15-12 27-27 27h-190z m535-842c-7-7-17-11-27-11-10 0-20 4-28 11l-112 112-9 10-9 9c-35-26-77-43-122-49v-16c0-19-15-34-33-34-19 0-34 15-34 34v16c-49 7-94 27-130 56-6 4-11 9-15 13-5 5-9 9-13 13-37 40-61 90-68 145h-17c-3 0-6 1-9 1-14 4-24 17-24 33 0 8 3 15 7 21 7 7 16 12 26 12h17c3 27 11 53 22 77 9 19 20 37 33 53 34 42 80 74 133 89 13 3 25 6 38 8v16c0 9 3 16 8 22 7 7 16 11 26 11 18 0 33-15 33-33v-17c32-4 63-14 90-29 5-2 9-5 14-7 4-3 8-6 13-9 59-41 100-106 110-181h17c18 0 33-15 33-34 0-18-15-33-33-33h-17c-6-46-24-87-50-123l9-9 10-9 111-112c16-15 16-40 0-56z m-190 215c29 34 47 79 47 128 0 48-18 93-48 127-4 5-8 10-13 14-4 4-8 8-13 12-34 27-77 44-123 44-41 0-79-13-111-34-21-14-39-32-53-53-17-26-29-56-32-89-1-7-2-14-2-21 0-11 1-22 3-33 11-64 53-118 110-146 12-5 24-9 36-13 16-3 32-6 49-6 16 0 33 3 48 6 15 4 30 10 43 17 5 2 9 5 13 8 11 6 21 14 30 23 6 5 11 10 16 16z m-77 134c7-7 13-15 17-25 4-10 6-20 6-32 0-24-8-45-24-62-14-14-31-23-52-26v-23c0-5-4-10-10-10h-19c-5 0-10 5-10 10v23c-13 2-24 6-33 11-12 5-22 15-30 28-8 13-13 29-14 47-1 5 3 10 8 11l32 6c3 0 6 0 8-2 2-2 4-4 4-7 3-15 6-26 11-33 4-5 9-9 14-11v78c-12 4-23 8-35 15-12 6-21 16-27 27-7 12-10 25-10 39 0 26 9 47 28 63 10 9 25 16 44 19v6c0 5 5 10 10 10h19c6 0 10-5 10-10v-6c17-3 30-9 41-18 15-13 25-31 28-54 1-5-3-11-9-12l-32-4c-6-1-11 3-12 8-2 11-5 19-9 24-2 2-4 3-7 5v-69c13-3 21-5 26-7 11-5 20-11 27-19z m-94 36v59c-5-2-8-4-11-8-6-6-8-13-8-21s2-15 6-21c3-3 7-6 13-9z m52-123c6 7 9 16 9 27 0 9-2 16-6 21-2 2-7 6-16 10v-68c5 2 9 6 13 10z" horiz-adv-x="1000" />

<glyph glyph-name="folder" unicode="&#xe80b;" d="M967 548c22 0 36-18 32-39l-88-497c-4-21-25-39-46-39h-799c-5 0-9 1-12 2-31 6-54 33-54 65v544c0 37 29 66 66 66h34c4 0 9 8 15 19 2 2 3 5 4 7 21 34 39 51 68 51h117c21 0 50-9 73-53 1-2 2-3 3-5 6-13 10-19 13-19h448c37 0 66-29 66-66v-27s-1-9 5-9h55z m-901 50c-8 0-14-6-14-14v-434c0-23 4-11 4-11l66 370c3 21 24 39 46 39h681c6 0 5 10 5 10v26c0 8-6 14-13 14h-448c-35 0-50 28-60 47-1 1-1 3-2 5-13 24-24 24-27 24h-111c-10 0-19-8-29-26-1-2-2-4-4-6-10-17-26-44-60-44h-34z" horiz-adv-x="1000" />

<glyph glyph-name="technology" unicode="&#xe80c;" d="M555 489c25 26 39 61 39 97 0 77-63 140-140 140-77 0-140-63-140-140 0-36 14-71 40-97 4-5 4-12-1-17-2-2-5-3-8-3-3 0-6 1-8 4-30 30-46 71-46 113 0 90 73 163 163 163 90 0 163-73 163-163 0-42-16-83-45-113-5-5-12-5-17-1-4 5-5 12 0 17z m-273-88c-5-4-12-4-16 0-49 50-76 116-76 185 0 146 119 264 264 264 146 0 264-118 264-264 0-69-26-135-75-185-2-2-5-3-8-3-3 0-6 1-9 3-4 5-4 12 0 17 45 45 69 105 69 168 0 133-108 241-241 241-133 0-241-108-241-241 0-63 25-123 69-168 5-5 5-12 0-17z m486-500l-13-43c-2-5-6-8-11-8h0l-249 0c-5 0-10 3-11 8-2 5-1 10 3 13 0 0 2 2 2 6-1 4-3 13-18 25-4 4-102 97-143 170-12 16-97 138-77 192 5 13 15 21 30 25 6 2 12 3 19 3 37 0 65-36 85-63 5-6 10-14 15-18 1 8 3 26 3 67 0 1 0 1 0 1 0 1 6 62 7 258-3 1-5 2-7 4-11 12-17 28-17 45 0 37 31 68 68 68 38 0 68-31 68-68 0-15-5-29-14-41 1-2 1-4 1-7 2-23 5-52 7-84 4-41 8-94 12-119 10 5 24 11 40 11 17 0 41-7 58-37 8 3 19 6 32 6 20 0 48-8 63-47 15-2 47-10 67-35 15-18 21-39 19-65 2-16 16-161-39-267z m-358 685c0-5 0-9 2-14 7 42 25 52 40 52 20 0 38-19 47-36-2 24-21 43-45 43-24 0-44-20-44-45z m373-420c0 1 0 2 0 3 2 20-2 36-13 49-20 24-58 28-58 28-5 0-9 4-10 8-9 25-23 38-44 38-17 0-32-8-32-9-3-1-6-2-9 0-3 1-6 3-7 6-10 22-24 33-42 33-21 0-40-14-41-15-3-2-7-3-10-1-11 3-12 3-24 146-3 33-6 70-8 94-1 1-1 2-1 2-1 10-2 17-2 20-1 1-2 3-2 4-3 11-18 28-28 28-7 0-16-11-19-45 0-203-6-270-6-277 0-64-5-81-13-89-3-4-7-6-12-6-12 0-21 13-35 32-18 22-41 54-67 54-4 0-8-1-12-3-1 0-1 0-2 0-9-2-11-7-13-10-12-33 39-122 74-171 0-1 0-1 1-1 39-70 138-164 139-165 16-14 25-28 25-42 0-1 0-2 0-3l223-1 11 36c0 1 1 2 1 2 54 104 37 254 36 255z" horiz-adv-x="1000" />

<glyph glyph-name="steering-wheel" unicode="&#xe80d;" d="M465 797q184 0 315-131t131-316-131-315-315-132-316 132-131 315 131 316 316 131z m0-112q-107 0-193-62t-122-161l629 0q-36 99-122 161t-192 62z m-1-390q24 0 41 16t16 40q0 24-17 40t-39 16-39-16-17-40 17-40 38-16z m-334 56q0-124 79-217t199-112q-2 137-83 233t-195 96z m391-329q120 20 199 112t79 217q-114 0-195-96t-83-233z" horiz-adv-x="928" />

<glyph glyph-name="phone-squared" unicode="&#xe80e;" d="M714 184q0 6-1 9-1 5-21 17t-50 27l-29 16q-3 2-11 8t-14 8-12 3q-10 0-26-18t-32-37-24-18q-4 0-9 2t-9 3-9 6-8 4q-56 31-95 71t-71 95q-1 2-5 8t-5 9-4 9-2 9q0 8 12 19t25 21 25 23 11 20q0 5-2 12t-9 14-7 10q-2 4-8 16t-14 25-15 27-14 23-9 10-9 1q-27 0-56-13-26-11-45-52t-19-73q0-9 1-19t3-17 5-19 6-16 7-18 6-17q33-92 121-179t178-121q4-1 17-6t19-7 16-5 18-5 17-3 19-2q32 0 73 19t53 45q12 30 12 56z m143 434v-536q0-66-47-113t-114-48h-535q-67 0-114 48t-47 113v536q0 66 47 113t114 48h535q67 0 114-48t47-113z" horiz-adv-x="857.4" />

<glyph glyph-name="cog-alt" unicode="&#xe80f;" d="M500 350q0 59-42 101t-101 42-101-42-42-101 42-101 101-42 101 42 42 101z m429-286q0 29-22 51t-50 21-50-21-21-51q0-29 21-50t50-21 51 21 21 50z m0 572q0 29-22 50t-50 21-50-21-21-50q0-30 21-51t50-21 51 21 21 51z m-215-235v-103q0-6-4-11t-9-6l-86-14q-6-19-18-42 19-27 50-64 4-6 4-11 0-7-4-11-13-17-46-50t-44-33q-6 0-11 4l-64 50q-21-11-43-17-6-60-13-87-4-13-17-13h-104q-6 0-11 4t-5 10l-13 85q-19 6-42 18l-66-50q-4-4-11-4-6 0-12 4-80 75-80 90 0 5 4 10 5 8 23 30t26 34q-13 24-20 46l-85 13q-5 1-9 5t-4 11v103q0 6 4 11t9 6l86 14q7 19 18 42-19 27-50 64-4 6-4 11 0 7 4 11 12 17 46 50t44 33q6 0 12-4l64-50q19 10 43 18 6 60 13 86 3 13 16 13h104q6 0 11-4t6-10l13-85q19-6 41-17l66 49q5 4 11 4 7 0 12-4 81-75 81-90 0-5-4-10-7-9-24-30t-25-34q13-27 19-46l85-12q5-2 9-6t4-11z m357-298v-78q0-9-83-17-6-15-16-29 28-63 28-77 0-2-2-4-68-40-69-40-5 0-26 27t-29 37q-11-1-17-1t-17 1q-7-11-29-37t-25-27q-1 0-69 40-3 2-3 4 0 14 29 77-10 14-17 29-83 8-83 17v78q0 9 83 18 7 16 17 29-29 63-29 77 0 2 3 4 2 1 19 11t33 19 17 9q4 0 25-26t29-38q12 1 17 1t17-1q28 40 51 63l4 1q2 0 69-39 2-2 2-4 0-14-28-77 9-13 16-29 83-9 83-18z m0 572v-78q0-9-83-18-6-15-16-29 28-63 28-77 0-2-2-4-68-39-69-39-5 0-26 26t-29 38q-11-1-17-1t-17 1q-7-12-29-38t-25-26q-1 0-69 39-3 2-3 4 0 14 29 77-10 14-17 29-83 9-83 18v78q0 9 83 17 7 16 17 29-29 63-29 77 0 2 3 4 2 1 19 11t33 19 17 9q4 0 25-26t29-38q12 2 17 2t17-2q28 40 51 63l4 1q2 0 69-39 2-2 2-4 0-14-28-77 9-13 16-29 83-8 83-17z" horiz-adv-x="1071.3" />

<glyph glyph-name="cancel" unicode="&#xe810;" d="M724 112q0-22-15-38l-76-76q-16-15-38-15t-38 15l-164 165-164-165q-16-15-38-15t-38 15l-76 76q-16 16-16 38t16 38l164 164-164 164q-16 16-16 38t16 38l76 76q16 16 38 16t38-16l164-164 164 164q16 16 38 16t38-16l76-76q15-15 15-38t-15-38l-164-164 164-164q15-15 15-38z" horiz-adv-x="785.2" />

<glyph glyph-name="attention" unicode="&#xe811;" d="M571 83v106q0 8-5 13t-12 5h-108q-7 0-12-5t-5-13v-106q0-8 5-13t12-6h108q7 0 12 6t5 13z m-1 208l10 257q0 6-5 10-7 6-14 6h-122q-7 0-14-6-5-4-5-12l9-255q0-5 6-9t13-3h103q8 0 13 3t6 9z m-7 522l428-786q20-35-1-70-10-17-26-26t-35-10h-858q-18 0-35 10t-26 26q-21 35-1 70l429 786q9 17 26 27t36 10 36-10 27-27z" horiz-adv-x="1000" />

<glyph glyph-name="filter" unicode="&#xe812;" d="M783 685q9-23-8-39l-275-275v-414q0-23-22-33-7-3-14-3-15 0-25 11l-143 143q-10 10-10 25v271l-275 275q-18 16-8 39 9 22 33 22h714q23 0 33-22z" horiz-adv-x="785.2" />

<glyph glyph-name="home" unicode="&#xe813;" d="M786 296v-267q0-15-11-26t-25-10h-214v214h-143v-214h-214q-15 0-25 10t-11 26v267q0 1 0 2t0 2l321 264 321-264q1-1 1-4z m124 39l-34-41q-5-5-12-6h-2q-7 0-12 3l-386 322-386-322q-7-4-13-4-7 2-12 7l-35 41q-4 5-3 13t6 12l401 334q18 15 42 15t43-15l136-114v109q0 8 5 13t13 5h107q8 0 13-5t5-13v-227l122-102q5-5 6-12t-4-13z" horiz-adv-x="927.7" />

<glyph glyph-name="menu" unicode="&#xe814;" d="M650 400q22 0 36-15t14-35-15-35-35-15h-600q-20 0-35 15t-15 35 14 35 36 15h600z m-600 100q-20 0-35 15t-15 35 14 35 36 15h600q22 0 36-15t14-35-15-35-35-15h-600z m600-300q22 0 36-15t14-35-15-35-35-15h-600q-20 0-35 15t-15 35 14 35 36 15h600z" horiz-adv-x="700.2" />

<glyph glyph-name="clock" unicode="&#xe815;" d="M500 546v-250q0-7-5-12t-13-5h-178q-8 0-13 5t-5 12v36q0 8 5 13t13 5h125v196q0 8 5 13t12 5h36q8 0 13-5t5-13z m232-196q0 83-41 152t-110 111-152 41-153-41-110-111-41-152 41-152 110-111 153-41 152 41 110 111 41 152z m125 0q0-117-57-215t-156-156-215-58-216 58-155 156-58 215 58 215 155 156 216 58 215-58 156-156 57-215z" horiz-adv-x="857.4" />

<glyph glyph-name="book" unicode="&#xe816;" d="M915 583q22-32 10-72l-154-505q-10-36-42-60t-69-25h-515q-43 0-83 30t-55 74q-14 37-1 71 0 2 1 15t3 20q0 5-2 12t-2 11q1 6 5 12t9 13 9 13q13 21 25 51t17 51q2 6 0 17t0 16q2 6 9 15t10 13q12 20 23 51t14 51q1 5-1 17t0 16q2 7 12 17t13 13q10 14 23 47t16 54q0 4-2 14t-1 15q1 4 5 10t10 13 10 11q4 7 9 17t8 20 9 20 11 18 15 13 20 6 26-3v-1q21 5 28 5h425q41 0 63-32t10-72l-152-506q-20-66-40-85t-72-20h-485q-15 0-21-8-6-9-1-24 14-39 81-39h515q16 0 31 9t19 23l168 550q4 13 3 32 21-8 33-24z m-594-1q-2-7 1-12t11-6h339q8 0 15 6t9 12l12 36q2 7-2 12t-11 6h-339q-7 0-14-6t-9-12z m-46-143q-3-7 1-12t11-6h339q7 0 14 6t10 12l11 36q3 7-1 13t-11 5h-339q-8 0-14-5t-10-13z" horiz-adv-x="927.7" />

<glyph glyph-name="phone" unicode="&#xe817;" d="M786 158q0-15-6-39t-12-38q-11-28-68-60-52-28-103-28-16 0-30 2t-32 7-26 8-31 11-28 10q-54 20-97 47-72 44-148 120t-120 148q-27 43-46 97-2 5-10 28t-12 31-8 26-7 32-2 29q0 52 29 104 31 56 59 68 14 6 38 12t39 6q8 0 12-2 10-3 30-43 6-10 16-30t20-35 17-30q2-2 10-14t12-20 4-16q0-11-16-28t-35-30-34-30-16-25q0-5 3-13t4-11 8-14 7-10q42-77 97-132t131-97q1 0 10-6t14-8 11-5 13-2q10 0 25 15t30 35 31 35 28 16q7 0 15-4t20-12 14-10q14-8 30-17t35-20 31-17q39-19 42-29 2-4 2-12z" horiz-adv-x="785.2" />

<glyph glyph-name="mail" unicode="&#xe818;" d="M929 11v428q-18-20-39-37-149-114-238-188-28-24-46-38t-48-27-57-13h-2q-26 0-57 13t-48 27-46 38q-88 74-238 188-21 17-39 37v-428q0-8 6-13t12-5h822q7 0 12 5t6 13z m0 586v14t-1 7-1 7-3 5-5 4-8 2h-822q-7 0-12-6t-6-12q0-94 82-159 108-85 224-177 4-2 20-16t25-21 25-18 28-15 24-5h2q11 0 24 5t28 15 25 18 25 21 20 16q116 92 224 177 30 24 56 65t26 73z m71 21v-607q0-37-26-63t-63-27h-822q-36 0-63 27t-26 63v607q0 37 26 63t63 26h822q37 0 63-26t26-63z" horiz-adv-x="1000" />

<glyph glyph-name="plus-squared" unicode="&#xe819;" d="M714 314v72q0 14-10 25t-25 10h-179v179q0 15-11 25t-25 11h-71q-15 0-25-11t-11-25v-179h-178q-15 0-26-10t-10-25v-72q0-14 10-25t26-10h178v-179q0-14 11-25t25-11h71q15 0 25 11t11 25v179h179q14 0 25 10t10 25z m143 304v-536q0-66-47-113t-114-48h-535q-67 0-114 48t-47 113v536q0 66 47 113t114 48h535q67 0 114-48t47-113z" horiz-adv-x="857.4" />

<glyph glyph-name="doc-text" unicode="&#xe81a;" d="M819 638q16-16 27-42t11-50v-642q0-23-15-38t-38-16h-750q-23 0-38 16t-16 38v892q0 23 16 38t38 16h500q22 0 49-11t42-27z m-248 136v-210h210q-5 16-12 23l-175 175q-6 7-23 12z m215-853v572h-232q-23 0-38 15t-16 38v233h-429v-858h715z m-572 483q0 7 5 12t13 5h393q8 0 13-5t5-12v-36q0-8-5-13t-13-5h-393q-8 0-13 5t-5 13v36z m411-125q8 0 13-5t5-13v-36q0-8-5-13t-13-5h-393q-8 0-13 5t-5 13v36q0 8 5 13t13 5h393z m0-143q8 0 13-5t5-13v-36q0-8-5-13t-13-5h-393q-8 0-13 5t-5 13v36q0 8 5 13t13 5h393z" horiz-adv-x="857.4" />

<glyph glyph-name="file-image" unicode="&#xe81b;" d="M819 638q16-16 27-42t11-50v-642q0-23-15-38t-38-16h-750q-23 0-38 16t-16 38v892q0 23 16 38t38 16h500q22 0 49-11t42-27z m-248 136v-210h210q-5 16-12 23l-175 175q-6 7-23 12z m215-853v572h-232q-23 0-38 15t-16 38v233h-429v-858h715z m-72 250v-178h-571v107l107 107 71-71 215 214z m-464 108q-45 0-76 31t-31 76 31 76 76 31 76-31 31-76-31-76-76-31z" horiz-adv-x="857.4" />

<glyph glyph-name="edit" unicode="&#xe81c;" d="M496 189l64 65-85 85-64-65v-31h53v-54h32z m245 402q-9 9-18 0l-196-196q-9-9 0-18t18 0l196 196q9 9 0 18z m45-331v-106q0-67-47-114t-114-47h-464q-67 0-114 47t-47 114v464q0 66 47 113t114 48h464q35 0 65-14 9-4 10-13 2-10-5-16l-27-28q-8-8-18-4-13 3-25 3h-464q-37 0-63-26t-27-63v-464q0-37 27-63t63-27h464q37 0 63 27t26 63v70q0 7 5 12l36 36q8 8 20 4t11-16z m-54 411l161-160-375-375h-161v160z m248-73l-51-52-161 161 51 51q16 16 38 16t38-16l85-84q16-16 16-38t-16-38z" horiz-adv-x="1000" />

<glyph glyph-name="arrow-up" unicode="&#xe81d;" d="M600 189q0-7-6-12l-28-28q-5-6-12-6t-13 6l-220 219-219-219q-5-6-13-6t-12 6l-28 28q-6 5-6 12t6 13l260 260q5 6 12 6t13-6l260-260q6-5 6-13z" horiz-adv-x="642.6" />

<glyph glyph-name="arrow-down" unicode="&#xe81e;" d="M600 439q0-7-6-12l-260-261q-5-5-13-5t-12 5l-260 261q-6 5-6 12t6 13l28 28q5 6 12 6t13-6l219-219 220 219q5 6 13 6t12-6l28-28q6-5 6-13z" horiz-adv-x="642.6" />

<glyph glyph-name="doc" unicode="&#xe81f;" d="M859 136h-138v-139q16 6 23 13l103 103q7 7 12 23z m-156 71h161v500h-714v-714h500v161q0 22 15 38t38 15z m232 518v-571q0-23-11-49t-27-43l-102-103q-16-15-43-26t-49-12h-571q-23 0-38 16t-16 38v750q0 22 16 38t38 16h750q22 0 38-16t15-38z" horiz-adv-x="1000" />

<glyph glyph-name="logout" unicode="&#xe820;" d="M357 46q0-2 1-11t0-14-2-14-5-11-12-3h-178q-67 0-114 47t-47 114v392q0 67 47 114t114 47h178q8 0 13-5t5-13q0-2 1-11t0-15-2-13-5-11-12-3h-178q-37 0-63-27t-27-63v-392q0-37 27-63t63-27h174t6 0 7-2 4-3 4-5 1-8z m518 304q0-14-11-25l-303-304q-11-10-25-10t-25 10-11 25v161h-250q-14 0-25 11t-11 25v214q0 15 11 25t25 11h250v161q0 14 11 25t25 10 25-10l303-304q11-10 11-25z" horiz-adv-x="928.6" />

<glyph glyph-name="ok" unicode="&#xe821;" d="M932 534q0-22-15-38l-404-404-76-76q-16-15-38-15t-38 15l-76 76-202 202q-15 16-15 38t15 38l76 76q16 16 38 16t38-16l164-165 366 367q16 16 38 16t38-16l76-76q15-16 15-38z" horiz-adv-x="1000" />

<glyph glyph-name="map-pin" unicode="&#xe822;" d="M286 243q37 0 71 8v-365q0-15-10-25t-26-11h-71q-14 0-25 11t-11 25v365q34-8 72-8z m0 607q118 0 202-84t83-202-83-202-202-83-202 83-84 202 84 202 202 84z m0-125q8 0 13 5t5 13-5 13-13 5q-82 0-139-58t-58-139q0-7 5-12t13-6 13 6 5 12q0 67 47 114t114 47z" horiz-adv-x="571.3" />

<glyph glyph-name="circle-thin" unicode="&#xe823;" d="M429 707q-73 0-139-28t-114-76-76-114-29-139 29-139 76-113 114-77 139-28 138 28 114 77 76 113 29 139-29 139-76 114-114 76-138 28z m428-357q0-117-57-215t-156-156-215-58-216 58-155 156-58 215 58 215 155 156 216 58 215-58 156-156 57-215z" horiz-adv-x="857.1" />

<glyph glyph-name="mail-alt" unicode="&#xe824;" d="M1000 454v-443q0-37-26-63t-63-27h-822q-36 0-63 27t-26 63v443q25-28 56-49 202-137 278-192 32-24 51-37t53-27 61-13h2q28 0 61 13t53 27 51 37q95 68 278 192 32 22 56 49z m0 164q0-44-27-84t-68-69q-210-146-262-181-5-4-23-17t-30-22-29-18-33-15-27-5h-2q-12 0-27 5t-33 15-29 18-30 22-23 17q-51 35-147 101t-114 80q-35 23-65 64t-31 77q0 43 23 72t66 29h822q36 0 62-26t27-63z" horiz-adv-x="1000" />

<glyph glyph-name="trash-empty" unicode="&#xe825;" d="M286 439v-321q0-8-5-13t-13-5h-36q-8 0-13 5t-5 13v321q0 8 5 13t13 5h36q8 0 13-5t5-13z m143 0v-321q0-8-5-13t-13-5h-36q-8 0-13 5t-5 13v321q0 8 5 13t13 5h36q8 0 13-5t5-13z m142 0v-321q0-8-5-13t-12-5h-36q-8 0-13 5t-5 13v321q0 8 5 13t13 5h36q7 0 12-5t5-13z m72-404v529h-500v-529q0-12 4-22t8-15 6-5h464q2 0 6 5t8 15 4 22z m-375 601h250l-27 65q-4 5-9 6h-177q-6-1-10-6z m518-18v-36q0-8-5-13t-13-5h-54v-529q0-46-26-80t-63-34h-464q-37 0-63 33t-27 79v531h-53q-8 0-13 5t-5 13v36q0 8 5 13t13 5h172l39 93q9 21 31 35t44 15h178q22 0 44-15t30-35l39-93h173q8 0 13-5t5-13z" horiz-adv-x="785.7" />

<glyph glyph-name="link-ext-alt" unicode="&#xe826;" d="M714 332v268q0 15-10 25t-25 11h-268q-24 0-33-22-10-23 8-39l80-80-298-298q-11-11-11-26t11-25l57-57q11-10 25-10t25 10l298 298 80-80q11-11 26-11 6 0 14 3 21 10 21 33z m143 286v-536q0-66-47-113t-114-48h-535q-67 0-114 48t-47 113v536q0 66 47 113t114 48h535q67 0 114-48t47-113z" horiz-adv-x="857.1" />

<glyph glyph-name="picture" unicode="&#xe827;" d="M357 529q0-45-31-76t-76-32-76 32-31 76 31 75 76 32 76-32 31-75z m572-215v-250h-786v107l178 179 90-89 285 285z m53 393h-893q-7 0-12-5t-6-13v-678q0-8 6-13t12-5h893q7 0 13 5t5 13v678q0 7-5 13t-13 5z m89-18v-678q0-37-26-63t-63-27h-893q-36 0-63 27t-26 63v678q0 37 26 63t63 27h893q37 0 63-27t26-63z" horiz-adv-x="1071.4" />

<glyph glyph-name="canvasser" unicode="&#xe828;" d="M539 280h-53c43 0 83 20 111 53h53c-28-33-67-53-111-53m111 53h-53c13 15 23 33 31 52h53c-8-19-18-37-31-52m31 52h-53c3 9 6 18 8 27h54c-3-9-5-18-9-27m-10 167h-53c-28 50-76 83-132 83h53c56 0 104-33 132-83m19-140h60c-27-116-163-240-204-397-1-4-4-6-7-6-3 0-6 2-7 6-47 171-209 309-209 436 0 136 97 247 216 247 88 0 164-60 197-146h-65c-28 50-76 83-132 83-85 0-155-79-155-177 0-98 70-178 155-178 72 0 133 56 151 132z m-151-403h-53c-4 0-7 2-8 6-46 171-208 309-208 436 0 36 7 70 19 101h53c-12-31-19-65-19-101 0-128 162-265 209-436 1-4 4-6 7-6m-197 543h-53c11 27 26 51 43 72h53c-18-21-32-45-43-72m43 72h-53c39 46 94 74 154 74h53c-60 0-114-28-154-74" horiz-adv-x="977" />

<glyph glyph-name="cutter" unicode="&#xe829;" d="M174 312c0 1 0 2 0 4-1 2-1 4-2 6-3 10-6 19-9 28-6 14-13 27-20 40-7 12-13 24-19 36-1 0-1 1-1 2-1 1-1 1-2 1-7-4-13-7-20-11-8-5-16-9-24-14-3-2-6-4-9-6-8-5-16-10-23-16-10-9-19-18-28-28 0 2 0 3 0 4 0 3 0 6 1 9 1 8 3 15 6 23 5 13 14 23 25 32 5 4 10 8 16 11 8 3 15 6 24 7 6 1 13 1 20 1 18-2 34-8 48-20 5-4 10-10 15-16 6-8 10-16 12-26 2-5 3-10 3-15 0-5 0-9 0-14 0-7-1-13-3-20-2-6-5-12-9-18 0 0 0 0-1 0z m-131-16c7-7 15-12 24-16 9-5 19-7 29-8 5 0 10 0 16 0 6 1 12 2 17 4 1 0 2 1 1 2 0 5 0 11 0 17 0 2 0 5 0 8-1 5-1 9-1 14-1 2-1 5-1 8-1 4-1 8-2 13 0 3-1 7-1 11 0 1-1 1-1 2-2 1-4 2-6 3-10 5-21 8-31 9-2 1-3 0-3-1-7-6-13-13-19-19-3-4-6-8-9-12-7-9-14-18-20-27 2-3 4-5 7-8z m105 53c0 1 0 2-1 3-2 11-6 21-9 31-4 12-8 23-12 34-2 4-3 8-4 12-20-16-39-33-58-51 33 6 61-3 84-29z m-95 16c-1 0-2 0-3 0-1-2-2-3-3-4-9-10-17-20-25-30-1-1-1-1 0-2 1-3 2-7 4-10 1-2 2-5 4-7 13 18 26 37 43 53-2 0-4 0-6 0-4 0-7 0-11 0-1 0-2 0-3 0z m82-23c1-6 2-12 2-19 1-5 1-10 2-15 0-7 0-14 1-20 0-3 0-5 0-7 0 0 0 0 0 0 6 3 12 6 17 11 0 0 0 0 0 1 0 2 0 4 0 6-1 2-1 5-1 7-1 5-1 10-2 15-1 2-1 5-2 7-5 5-11 10-17 15 0 0 0-1 0-1z m-82 23c1 0 2 0 3 0-1 0-2 0-3 0z m209 57c-17 0-32-6-43-17-12-11-18-25-18-41 0-17 6-31 18-42 12-12 26-18 44-18 11 0 22 3 32 8v18c-11-7-21-10-31-10-14 0-25 4-34 13-9 8-14 18-14 31 0 12 5 22 13 30 9 9 20 13 33 13 10 0 21-3 33-9v17c-11 5-22 7-33 7z m42-85c0-9 3-17 9-22 6-6 13-9 22-9 9 0 17 3 23 9 5 5 8 13 8 22v43h-15v-41c0-6-1-10-4-14-3-3-6-5-11-5-11 0-17 6-17 19v41h-15v-43z m80 43h-12v-14h12v-58h15v58h15v14h-15v21h-15v-21z m47 0h-12v-14h12v-58h15v58h15v14h-15v21h-15v-21z m99-10c-7 8-16 12-27 12-10 0-19-4-26-12-8-7-11-16-11-26 0-11 3-20 10-27 8-7 17-11 27-11 14 0 25 5 34 16l-11 8c-6-7-13-10-22-10-6 0-11 1-15 5-5 3-8 8-10 16h62c0 12-4 22-11 29z m-27-2c10 0 17-5 22-15h-44c5 10 12 15 22 15z m52 12v-72h15v40c0 5 2 9 5 13 4 4 8 5 13 5 1 0 3 0 6 0l4 15c-2 0-4 1-6 1-5 0-9-2-12-4-3-3-7-7-10-13v15h-15z m109 42c-17 0-31-6-43-17-12-11-18-25-18-41 0-17 6-31 18-42 12-12 27-18 44-18 12 0 23 3 33 8v18c-11-7-22-10-32-10-13 0-25 4-34 13-9 8-13 18-13 31 0 12 4 22 13 30 9 9 20 13 33 13 10 0 21-3 33-9v17c-12 5-23 7-34 7z m47-42v-72h15v40c0 5 2 9 6 13 3 4 7 5 12 5 1 0 3 0 6 0l5 15c-3 0-5 1-6 1-6 0-10-2-13-4-3-3-7-7-10-13v15h-15z m56-63c8-7 17-11 28-11 10 0 18 4 26 12 8 7 11 16 11 26 0 10-3 19-11 27-8 7-17 11-27 11-10 0-19-4-27-12-8-7-12-16-12-26 1-10 4-19 12-27z m44 11c-5-5-10-7-17-7-6 0-12 2-16 7s-8 9-8 15c0 7 3 12 8 17 4 4 10 7 17 7 6 0 12-3 16-7 5-5 7-10 7-16 0-6-2-12-7-16z m33 67c2-2 5-3 8-3 3 0 6 1 8 3 2 2 4 5 4 8 0 3-2 6-4 8-2 3-5 4-8 4-3 0-6-1-8-4-2-2-3-5-3-8 0-3 1-6 3-8z m1-87h15v72h-15v-72z m57 39l-30-39h18l21 27 35-48h18l-44 60 25 32h-18l-16-20-16 20h-18l25-32z" horiz-adv-x="977" />

<glyph glyph-name="giddylogo" unicode="&#xe82a;" d="M789 320c-3-13-13-22-24-30-39-27-58-21-75 23-4 14 3 30-5 44-1 7 0 14 9 15 14-7 19-16 10-31-4-9-2-21 1-31 7-21 19-26 39-18 22 9 37 28 37 50 0 6 1 12-6 16-7 5-13 11-3 18 9 6 14 0 18-8 1-3 2-6 3-8 5-5 2-11 2-17-1-8 2-17-6-23z m-89 61c3 7 9 16-1 20-10 3-11-7-13-13-8-24-22-46-34-68-17-33-42-62-51-100-2-5-5-10 2-15 3-2 7-4 11-1 6 3 8 8 6 14-3 14 4 25 11 36 17 32 35 64 52 96 2 3 6 5 3 10 3 4 5 8 8 12 2 3 4 6 6 9z m-316-90c-12 0-14 8-14 19 0 22-1 44-1 67 0 5-1 10-8 10-4-1-6-4-5-8 3-30-6-61 3-91 2-8 3-19 14-17 9 1 13 10 11 20 0 0 0 0 0 0z m212 34c7-9 10-21 19-30 4-4 8-5 13-2 6 5 2 9-2 13-8 8-12 18-14 29-2 13-9 15-19 7-5-7-2-12 3-17z m-251 101c-1-8 4-11 10-10 6 1 15-1 15 8 0 7-6 11-13 14-6-1-10-6-12-12z m-102-64c-2-5-7-3-11-2-12 3-23 7-35 10-9 2-21 6-28-2-8-10-1-21 3-30 5-10 11-20 17-29 2-4 6-8 1-12-6-4-8 2-11 6-7 12-14 23-21 35-4 6-8 14-18 12-8-2-10-11-12-18-2-11-3-21-4-32-5-6 1-15-4-21-2 0-3 0-4 0-4 9-3 18-1 27 0 10 1 21 0 31-1 18-8 22-23 13-14-10-25-23-37-35-2-3-5-8-10-4-4 3-1 7 2 11 10 13 21 26 31 40 9 14 4 23-11 27-16 4-32 5-49 5-4 0-12-2-12 5 0 8 8 6 13 7 16 1 32-1 48 3 15 4 17 12 9 23-11 14-25 24-38 35-3 2-10 5-5 11 4 4 8 0 11-2 12-9 23-17 35-25 6-5 13-11 21-7 9 5 7 15 7 23-2 15-5 30-7 44-1 4-2 8 2 9 6 2 7-2 9-7 4-15 7-31 13-47 6-17 15-19 27-4 9 10 15 22 23 33 3 5 4 16 11 12 9-4 0-12-2-18-4-10-9-21-14-31-3-8-7-16 0-24 7-7 16-4 24-1 13 3 26 8 38 13 4 1 9 3 11-2 1-5-3-6-6-8-15-7-30-12-44-20-17-10-16-18-1-28 14-9 28-13 43-18 5-1 10-2 9-8z m-92 39c-1 13-10 22-23 22-14 0-20-10-20-23-1-14 10-24 19-24 11 1 25 8 24 25z m817-81c0-2-2-1-3-1-3 1-6 2-9 3-3 0-6 2-8-1-2-2 0-5 1-8 1-2 3-5 5-8 0-1 1-2 0-3-2-1-2 1-3 2-2 3-4 6-6 9-1 2-2 4-5 4-2-1-3-3-3-5-1-3-1-6-2-9-1-2 1-4-1-6 0 0 0 0-1 0-1 2-1 5 0 7 0 3 0 6 0 9 0 5-2 6-6 4-4-3-7-7-10-10-1-1-2-2-3-1-1 1 0 2 0 3 3 4 6 7 9 11 2 4 1 6-3 7-5 1-9 2-14 2-1 0-3-1-3 1 0 3 2 2 4 2 4 0 9 0 13 1 4 1 5 3 2 6-3 4-7 7-10 10-1 1-3 1-2 3 1 1 3 0 3-1 4-2 7-4 10-7 2-1 4-3 6-1 2 1 2 4 2 6-1 4-1 8-2 12 0 1 0 2 1 3 1 0 2-1 2-2 1-4 2-9 4-13 1-5 4-5 7-1 3 3 4 6 6 9 1 1 2 4 4 3 2-1 0-3-1-5-1-3-3-5-4-8 0-2-2-5 0-7 2-2 5-1 7 0 4 1 7 2 11 3 1 1 2 1 2 0 1-1 0-2-1-2-4-2-9-4-12-6-5-3-5-5-1-8 4-2 8-3 12-5 1 0 3-1 2-2z m-25 10c0 4-3 7-7 7-3 0-5-3-5-7-1-4 3-6 5-6 3 0 7 2 7 6z m-655-128c-23-4-44 13-68 18-9 2-9 12-1 17 9 6 19 6 29 6 4-1 8-4 5-7-17-16 4-13 9-16 5-4 13-5 20-6 43-8 67 17 57 60-1 4-3 8-4 12-11 34-11 34-44 25-2 0-5-1-8-2-17-2-34-3-42 16-8 19 4 32 20 42 10 6 21 11 32 15 12 4 21 1 29-10 12-14 22-26 17-47-3-11 6-26 10-38 19-52-4-85-61-85z m15 165c-13 3-23-4-33-11-3-2-6-4-8-7-6-4-12-9-8-17 4-8 11-10 19-10 3 0 6 1 9 1 19 1 24 14 26 29 1 6 1 13-5 15z m81-76c0 0 0 0 0 0 0 0 0 0 0 0l0 0z m107 4c-10-18-26-24-45-24-23 0-42 10-62 20-8 20 0 36 15 50 16 15 31 33 51 44 8 4 10 9 9 17-1 14-1 28-1 42-1 5-2 12 6 13 7 0 6-7 6-12 4-40 8-80 12-120 4-6 6-13 9-19 2-4 3-7 0-11z m-26 9c-7 21-3 44-7 67-20-7-46-28-58-47-4-6-8-11-2-19 8-11 39-21 54-18 8 1 10 7 12 13 1 1 1 2 1 4z m127-19c-12-8-25-16-41-14-22 3-43 7-60 24-1 3-2 6-2 9-9 7-4 12 1 17 19 26 41 49 69 65 7 4 7 8 7 14-1 15-1 30-2 44 0 6-2 13 7 13 7 0 5-7 6-12 4-34 8-68 12-102 9-10-2-21 4-31-5-9 10-20-1-27z m-22 22c-3 21-3 42-4 66-20-7-33-19-45-32-8-9-23-18-18-32 5-16 23-18 38-22 4-1 7 0 11-1 15-1 21 7 18 21z m271-30c-20-3-25-11-19-29 1-3 2-7 2-10 1-6 2-12-6-13-7-1-12 3-11 10 1 25-17 47-11 73-1 11-6 21-4 32 0 8 4 14 9 20 7 18 22 28 41 29 20 2 31-14 40-30 22-42 7-74-41-82z m18 89c-15 13-30 12-41-4-4-6-6-13-9-19-2-11-5-22 10-26 5-6 3-13 3-20 0-7 2-11 10-9 19 5 39 10 45 31 4 18-4 34-18 47z" horiz-adv-x="977" />

<glyph glyph-name="cutterball" unicode="&#xe82b;" d="M896 98c-1 8-3 15-4 23-3 12-5 25-8 37-16 54-33 107-55 159-32 78-73 151-112 225-37 68-73 136-107 204-2 4-4 8-6 11-3 9-4 9-11 5-37-20-74-40-110-61-46-26-93-52-139-79-16-9-33-20-49-30-47-28-90-60-132-95-57-46-108-97-155-155 0 9-1 16 0 23 1 16 1 33 3 49 5 44 16 87 34 128 31 74 80 134 141 185 28 23 59 44 92 59 43 20 87 35 133 41 40 6 79 7 119 4 100-8 189-44 266-110 32-27 59-57 84-90 35-46 58-96 73-150 8-28 12-56 15-84 2-27 2-54 0-80-2-38-9-75-20-111-12-36-28-71-48-103-1-2-2-3-4-5z m-744-88c40-39 84-71 135-94 53-24 108-37 166-42 30-2 59-1 89 2 34 3 67 10 100 21 4 1 6 3 6 8 0 32 1 64-1 96-1 16-1 31-2 46-2 27-4 54-7 81-1 15-2 29-4 44-3 24-6 49-9 73-2 22-5 44-8 66 0 4-2 6-6 8-11 5-21 11-32 16-57 28-116 46-178 56-8 2-12 0-17-5-38-35-71-74-105-112-19-20-35-43-52-64-40-51-78-103-114-157 12-15 25-29 39-43z m595 302c-1 6-3 11-4 17-15 59-33 118-54 175-23 64-46 128-69 191-8 21-15 42-22 66-114-91-221-188-327-286 189 32 348-20 476-163z m-539 89c-4-2-10 1-13-4-6-6-12-12-18-19-51-55-98-114-144-173-2-2-2-4-1-7 6-20 14-39 24-58 7-14 14-27 23-40 74 105 150 209 243 300-13 2-23 1-34 1-20 2-40 1-61 1-6-3-12-2-19-1z m467-131c5-35 9-70 13-105 3-29 6-58 8-88 2-38 4-76 5-115 1-13 0-26 0-40 2 0 2 0 2 1 34 17 65 38 94 62 2 2 3 4 2 7-1 12-2 24-3 35-2 14-3 28-5 42-3 29-6 57-11 85-3 13-3 26-13 38-28 30-58 59-92 84 0-2 0-4 0-6z m-467 131c7-2 13-2 19 0-6 0-12 0-19 0z" horiz-adv-x="977" />

<glyph glyph-name="spur" unicode="&#xe82c;" d="M920 235c-59 18-118 36-171 69-62 40-63 73 2 111 56 31 116 54 175 81 12 6 29 12 23 30-7 23-24 15-41 9-50-18-99-38-150-53-32-8-69-21-96 7-28 29-11 64 1 95 17 41 38 82 53 123 9 24 45 54 10 72-28 15-32-29-46-48-30-44-55-92-88-133-48-57-84-51-110 18-22 61-35 124-52 186-5 17-10 35-33 27-16-6-12-22-10-36 9-58 21-115 27-174 3-33 8-71-28-91-33-18-58 9-83 26-47 31-91 65-137 98-13 10-29 25-44 9-21-23 6-33 20-44 53-42 108-80 148-136 34-46 25-76-32-91-64-17-129-10-193-15-20-1-52 7-50-26 1-28 30-19 48-19 64-2 129-6 192-22 61-15 80-51 43-104-39-55-81-108-122-161-11-14-24-29-7-44 18-15 30 4 41 16 45 50 88 102 146 139 59 37 87 22 91-49 2-42-1-84-2-126-7-36-11-71 4-105 5 0 10 0 16-1 19 25-2 58 14 84 7 41 11 83 20 124 6 31 13 66 47 74 37 9 54-25 70-50 29-45 56-91 85-136 10-15 19-40 43-23 18 12 3 30-5 44-22 39-46 77-66 118-18 37-44 81-13 118 29 34 74 17 112 7 46-12 91-27 137-39 15-4 36-12 43 10 6 21-16 26-32 31z m-429 25c-33-1-79 38-75 94 2 50 26 89 78 90 55 1 89-34 93-88 5-66-53-94-96-96z" horiz-adv-x="977" />

<glyph glyph-name="materials" unicode="&#xe82d;" d="M896 19c0-8-7-14-16-14h-239c-8 0-16 6-16 14v109c0 8 8 14 16 14h239c9 0 16-6 16-14v-109z m339 109c0 8-7 14-16 14h-238c-9 0-17-6-17-14v-109c0-8 8-14 17-14h238c9 0 16 6 16 14v109z m-170 206c0 8-7 14-16 14h-238c-9 0-16-6-16-14v-109c0-8 7-14 16-14h238c9 0 16 6 16 14v109z m-246 122l0 0c8-5 19-3 24 5l55 78c5 8 3 19-5 24l-16 12-74-107 16-12z m-340-160c11-23 34-38 57-41l145 206-58 40-144-205z m307 202c2-1 2-3 4-4 0-1 1-2 1-4 1-2 2-4 3-6 21 31 42 61 64 91 0 0-50-6-76 53-5 4-11 8-16 12-75 52-146 63-209 46-3-1-10-3-16-5-11-4-9-20 3-18 6 1 12 2 15 2 12 0 23 1 35-1 50-10 89-56 57-103-9-12-27-37-27-38 0 0 75-52 75-52-2-3 5 7 7 10 11 13 35 35 64 29 4-1 8-3 11-5 1-2 3-3 4-5 1 0 1-1 1-2l0 0z m0 0" horiz-adv-x="1714" />

<glyph glyph-name="metrics" unicode="&#xe82e;" d="M1295 272c3 1 5 5 3 8-1 1-1 3-2 5-1 2-2 4-3 6-1 2-3 5-4 8-1 3-3 6-5 10-1 2-2 3-2 5-1 1-2 3-3 5-2 3-4 7-6 10-2 4-4 7-6 11-1 2-2 4-4 6-1 2-2 4-3 6-3 4-5 8-8 12-5 8-10 16-16 24-2 2-3 4-5 6l-2 3-2 3c-3 4-7 8-10 12-3 4-6 8-9 12-2 2-3 4-5 6-2 2-3 4-5 6-2 2-3 4-5 5-2 2-3 4-5 6-3 3-7 7-10 10-3 4-7 7-10 10-3 4-6 7-10 10-3 3-6 6-9 8-3 3-6 6-9 8-3 3-5 5-8 7-3 3-5 5-7 7-3 2-5 3-7 5-2 2-4 3-6 5-2 2-4 3-6 4-3 2-6 2-9 0l-106-129c-2-2-2-6 0-8 1-1 2-2 4-3 1-1 2-3 3-4 2-1 3-3 4-4 2-2 3-3 5-5 2-2 4-4 5-6 2-2 4-4 6-6 2-2 4-5 6-7 2-2 4-5 6-7 1-3 4-5 6-8 2-3 4-6 5-8 2-2 2-3 4-5 0-1 1-3 2-4 1-1 2-3 3-4 1-2 2-3 3-5 2-3 4-6 6-9 2-3 4-6 5-9l2-2 1-2c1-2 2-3 3-5 3-6 6-12 9-18 1-3 3-6 4-9 1-1 1-3 2-4 1-2 1-3 2-4 1-3 2-6 3-8 1-3 2-6 3-8 1-1 1-3 2-4 0-1 1-2 1-3 1-2 1-4 2-6 0-2 1-3 2-5 0-2 1-4 2-6 0-1 1-3 1-5 2-3 5-5 8-3l184 74z m0 0l-540 229c1 0 3 0 5-1 2 0 4 0 6-1 2 0 5 0 7-1 3 0 5-1 7-1l67 137c-3 0-6 1-10 1-2 1-4 1-6 1-2 0-5 1-7 1-4 0-8 1-12 1-4 1-8 1-12 1-3 1-7 1-10 1-4 0-7 1-10 1-3 0-5 0-8 0-3 0-5 0-7 0-3 0-6 0-8 0-3 0-6-2-6-5l-6-128c0-3 2-6 5-6 1 0 3-1 5-1l0 0z m-540 229l180-70c1-1 3-3 5-4 1-1 3-2 4-3 1 0 2-1 3-2 1 0 1-1 2-2 2-1 3-2 4-3 3-2 7-1 9 2l88 133c1 3 1 7-2 9-2 0-3 1-5 2-1 1-2 1-3 2-1 0-2 1-3 1-2 2-5 3-8 5-3 2-6 3-9 5-3 2-6 3-9 5-4 1-7 3-11 5-4 2-7 3-11 5-4 2-8 4-13 5-4 2-8 4-12 5-1 1-3 1-4 2l-37-164c2-1 4-3 5-4 2-1 5-3 7-4l0 0z m180-70l-298 71c2 0 4 0 5 1 2 0 4 0 5 0 3 0 7 1 9 1 4 0 6 0 9 1 2 0 3 0 4 0 2 0 3 0 4 0 3 0 5 0 7 0 2 0 4 0 6 0 2 0 4 0 6 0 2 0 4 0 6 0 3 0 6 3 6 7l-8 120c0 3-4 6-7 5-2 0-3 0-5 0-2-1-4-1-7-1-2 0-5-1-8-1-3-1-7-1-10-2-2 0-4 0-5-1-2 0-4 0-6-1-3 0-7-1-11-2-4-1-8-2-12-3-2 0-4 0-6-1-2 0-4-1-6-2-4-1-9-2-13-3-4-1-9-3-13-4-2-1-5-1-7-2-2-1-4-2-7-2-2-1-4-2-7-3-2 0-4-1-6-2-5-2-9-4-14-5-4-2-9-4-13-6-2-1-5-2-7-3-2-1-4-2-6-3-2-1-5-2-7-3-2-1-4-2-6-3-4-2-8-4-12-6-4-2-8-4-12-6-3-2-7-4-11-7-3-2-7-4-10-6-3-2-6-4-9-6-3-2-6-3-9-5-3-2-5-4-8-5-2-2-4-3-6-5-2-1-4-3-6-4-2-2-4-3-6-4-2-2-3-6-1-9l50-73c2-2 5-3 8-2 1 1 3 2 4 3 2 1 3 2 5 2 2 1 4 2 6 4 2 1 5 2 7 3 2 1 5 2 7 4 3 1 6 2 9 4 2 1 5 2 8 4 4 1 7 2 10 3 3 2 6 3 10 4 3 2 7 3 10 4 2 1 4 1 5 2 2 0 4 1 6 2 2 0 3 1 5 1 2 1 4 2 6 2 3 1 7 2 11 3 4 1 7 2 11 3 2 0 4 1 5 1 2 0 4 1 6 1 2 0 4 1 5 1 2 1 4 1 6 1 3 1 7 1 11 2 2 1 6 1 9 2l0 0z m-298 71l28-525c14-6 28-9 42-9 35 0 68 19 85 53 3 6 5 13 7 20l95 414 37 158 22 98c3 11-6 19-15 19-6 0-11-3-14-9l-46-93-67-139-189-385c-23-47-3-104 43-127l0 0z m73-391c26 0 47-21 47-46 0-26-21-47-47-47-25 0-46 21-46 47 0 25 21 46 46 46l0 0z m0 0" horiz-adv-x="1714" />

<glyph glyph-name="estimating" unicode="&#xe82f;" d="M842 345h119v85c-25-34-65-63-116-83-1-1-2-1-3-2l0 0z m0 0l-167-330h53v61c0 15 12 27 27 27s27-12 27-27v-61h59v125c0 15 12 27 27 27s27-12 27-27v-125h58v61c0 15 12 27 27 27 15 0 27-12 27-27v-61h59v125c0 15 12 27 27 27 15 0 27-12 27-27v-125h58v61c0 15 12 27 27 27s27-12 27-27v-61h52c22 0 40 18 40 40v219c0 22-18 39-40 39h-628c-74 3-143 22-196 53-29 18-53 39-69 62l-1 1v-244c0-94 128-170 285-170l0 0z m-167-330l-12 331c4-1 8-1 13-1 117 0 218 43 262 103 15 21 23 43 23 67 0 94-128 170-286 170-157 0-285-76-285-170 0-24 8-46 23-67 42-58 138-100 250-102l0 0z m0 576c71 0 128-34 128-76 0-7-2-13-5-19-1-4-3-7-6-11-19-27-64-45-117-45-4 0-8 0-12 0-47 3-87 21-105 45-6 9-10 20-10 30 0 42 57 76 127 76l0 0z m0 0" horiz-adv-x="1714" />

<glyph glyph-name="mobile" unicode="&#xe830;" d="M930 322c2-2 5-2 8-2 4 0 7 1 10 4 16 21 25 46 25 72 0 26-8 50-25 71-4 5-12 6-18 2-5-5-6-13-2-18 13-16 19-35 19-55 0-21-6-40-19-56-5-5-4-13 2-18l0 0z m0 0l-144 146c-6 5-14 4-18-2-17-20-25-45-25-71 0-26 8-50 24-71 3-3 6-5 10-5 3 0 6 1 8 3 6 5 6 13 2 18-12 16-19 35-19 55 0 21 7 40 20 56 4 5 3 13-2 17l0 0z m-144 146l42-77c9 9 21 14 34 14 23 0 41-16 43-39l1-4c0-4 0-5 1-10 0-6 3 0 5 2 6 10 10 22 10 36 0 35-29 64-64 64-36 0-65-29-65-64 0-17 8-31 17-43 5-9 6-2 6 3l0 11c0 11 4 22 12 30l0 0z m42-77l194 298h-329c-20 0-36-16-36-36v-549c0-20 16-36 36-36h69c14 0 9 5 7 7-26 37-41 71-45 92 0 3 0 6 0 8 0 3 1 9-8 9h-9c-5 0-9 4-9 9v417c0 5 4 9 9 9h301c5 0 9-4 9-9v-355c0-9 5-10 7-10 13-4 23-14 30-25 2-3 5-5 5 1v431c0 21-16 37-37 37l0 0z m58 251h-56c-5 0-9 4-9 9 0 5 4 10 9 10h56c5 0 9-5 9-10 0-5-4-9-9-9l0 0z m0 0l-67-621 0-11m199 10l0 20 17 29c7 12 11 26 11 40v87c0 11-12 31-30 34l0 0c-4 1-12 4-20 6-10 4-20 7-27 9-4 0-11 3-19 5-10 3-20 7-27 8-7 2-14 1-20 0-3 28-12 97-13 107h0c-1 14-13 24-28 24-9 0-17-3-23-9-5-5-8-12-7-19l-1-197c-6 1-19 6-28 19l-1 2c-2 2-4 4-5 6-7 10-17 16-27 16-9 0-18-4-24-11-6-7-8-16-6-26 4-24 28-78 79-131l0-18m199-11l0 10m-199-10l199 0m-2 221" horiz-adv-x="1714" />

<glyph glyph-name="scheduling" unicode="&#xe831;" d="M1148 633h-94v43c0 12-10 22-22 22-12 0-22-10-22-22v-43h-130v43c0 12-10 22-22 22-12 0-21-10-21-22v-43h-131v43c0 12-10 22-21 22-12 0-22-10-22-22v-43h-94c-32 0-58-26-58-58v-514c0-32 26-58 58-58h579c32 0 58 26 58 58v514c0 32-26 58-58 58l0 0z m15-572c0-8-7-15-15-15h-579c-8 0-15 7-15 15v514c0 8 7 14 15 14h94v-43c0-12 10-22 22-22 11 0 21 10 21 22v43h131v-43c0-12 9-22 21-22 12 0 22 10 22 22v43h130v-43c0-12 10-22 22-22 12 0 22 10 22 22v43h94c8 0 15-6 15-14v-514z m0 0l-500 376h87v-65h-87v65z m-500 268h87v-66h-87v66z m0-109h87v-65h-87v65z m152 0h87v-65h-87v65z m0 109h87v-66h-87v66z m0 108h87v-65h-87v65z m152-217h87v-65h-87v65z m0 109h87v-66h-87v66z m0 108h87v-65h-87v65z" horiz-adv-x="1714" />

<glyph glyph-name="integration" unicode="&#xe832;" d="M1118 463c2 9 3 18 3 28 0 71-58 129-128 129-27 0-52-9-73-23-29 60-90 102-160 102-99 0-179-80-179-179 0-20 4-40 10-59-51-13-89-59-89-114 0-57 41-105 95-116 2 7 6 14 12 20 0 0 98 98 99 99 10 8 22 13 35 13 14 0 27-6 37-16l3-3 90-90v2c0 33 27 59 59 59h63c32 0 58-26 58-59v-28h42c66 0 119 53 119 119 0 58-42 106-96 116l0 0z m0 0l-58-332h-42v125c0 13-11 23-23 23h-63c-13 0-23-10-23-23v-125h-42c-7 0-14-4-16-11-3-6-1-14 4-18l96-97c3-3 8-5 12-5 5 0 9 2 12 5l97 97c5 5 6 12 3 18-2 7-8 11-15 11l0 0z m-58-332l-205 75c3 7 1 14-4 19l-96 97c-4 3-8 5-12 5-5 0-9-2-13-5l-96-97c-5-5-6-12-4-19 3-6 9-10 16-10h42v-126c0-12 11-23 23-23h63c13 0 23 11 23 23v126h42c7 0 13 4 16 10l0 0z m-205 75" horiz-adv-x="1714" />

<glyph glyph-name="corporate" unicode="&#xe833;" d="M566-4h49c21 0 38 17 38 38v125c-41-6-82-10-124-11h-1v-114c0-21 17-38 38-38l0 0z m0 0l223 0c21 0 38 17 38 38v167c-20-7-41-13-62-19-19-5-38-10-57-14-2 0-3 0-5 0v-134c0-21 17-38 38-38l48 0 0 0z m223 0l174 0c21 0 38 17 38 38v251c-3-3-7-5-11-7-32-20-67-39-104-55-3-1-6-2-9-3v-186c0-21 17-38 38-38l48 0 0 0z m174 0l213 38v439c-8-16-17-31-27-46-22-33-49-64-82-93-5-4-10-8-16-13v-287c0-21 17-38 39-38h48c21 0 38 17 38 38l0 0z m213 38l-663 137h0c5 0 10 0 15 0 43 2 84 5 125 12 17 2 33 5 50 8 19 4 37 9 56 14 23 6 46 13 68 21 17 6 34 12 50 19 36 15 70 33 101 53 8 5 16 10 23 15 18 13 35 26 50 39 32 27 58 57 79 88 21 31 36 64 46 98 4 15 7 30 9 45h18c15 0 24 17 15 30l-55 81c-4 6-10 8-16 8-6 0-12-2-16-8l-56-81c-8-13 1-30 16-30h17c-5-34-19-68-41-101-5-7-10-14-16-21-14-18-31-35-50-52-19-16-40-32-63-47-20-12-40-23-61-33-16-8-33-16-50-22-28-11-57-21-87-29-13-3-25-6-37-9-17-3-33-7-50-9-41-7-82-11-125-13-5 0-10 0-15 0-11 0-19-9-19-19v-38c0-10 8-19 19-19l0 0z m-663 137" horiz-adv-x="1714" />

<glyph glyph-name="workflow" unicode="&#xe834;" d="M1180 704c-39 0-70-32-70-70 0-9 2-18 5-27l-115-115c-29 22-65 35-104 35-31 0-62-8-89-24l-72 83c5 9 8 20 8 31 0 39-32 70-70 70-39 0-70-31-70-70 0-38 31-70 70-70 7 0 14 1 21 4l71-82c-29-33-44-74-44-117 0-17 2-35 7-51l-157-112c-11 7-23 10-37 10-38 0-70-31-70-70 0-38 32-70 70-70 39 0 70 32 70 70 0 5 0 11-1 16l150 106c19-27 46-49 77-61l-17-47c-35-4-63-34-63-70 0-39 31-70 70-70s69 31 69 70c0 20-9 40-24 53l18 51c4-1 9-1 13-1 22 0 44 5 65 13l75-91c-5-10-8-21-8-32 0-39 32-70 70-70 39 0 70 31 70 70 0 38-31 70-70 70-7 0-14-1-20-3l-70 84c40 33 63 82 63 134 0 38-12 74-33 102l115 115c9-3 18-5 27-5 38 0 70 32 70 70 0 39-32 71-70 71l0 0z m-284-258c52 0 94-42 94-94 0-52-42-95-94-95-52 0-95 43-95 95 0 52 43 94 95 94l0 0z m0 0" horiz-adv-x="1714" />

<glyph glyph-name="angle-circled-right" unicode="&#xe835;" d="M400 72l253 253q11 11 11 25t-11 25l-253 253q-10 11-25 11t-25-11l-57-56q-11-11-11-26t11-25l171-171-171-171q-11-11-11-25t11-26l57-57q11-10 25-10t25 10z m457 278q0-117-57-215t-156-156-215-58-216 58-155 156-58 215 58 215 155 156 216 58 215-58 156-156 57-215z" horiz-adv-x="857.1" />

<glyph glyph-name="direction" unicode="&#xe836;" d="M782 655l-357-714q-10-20-32-20-3 0-8 1-13 3-20 13t-8 22v322h-321q-13 0-22 7t-13 20 2 23 17 17l714 357q7 4 16 4 15 0 25-10 8-8 10-20t-3-22z" horiz-adv-x="785.7" />

<glyph glyph-name="flag" unicode="&#xe837;" d="M179 707q0-40-36-61v-707q0-7-5-12t-13-6h-36q-7 0-12 6t-6 12v707q-35 21-35 61 0 30 21 51t50 21 51-21 21-51z m821-36v-425q0-14-7-22t-22-15q-120-65-206-65-34 0-69 12t-60 27-65 27-79 12q-107 0-259-81-10-5-19-5-14 0-25 10t-10 25v414q0 18 17 31 12 8 44 24 132 67 235 67 60 0 112-16t122-49q21-11 49-11 30 0 65 12t62 26 49 26 30 12q15 0 25-10t11-26z" horiz-adv-x="1000" />

<glyph glyph-name="doc-text-inv" unicode="&#xe838;" d="M819 584q8-7 16-20h-264v264q13-8 21-16z m-265-91h303v-589q0-23-15-38t-38-16h-750q-23 0-38 16t-16 38v892q0 23 16 38t38 16h446v-304q0-22 16-38t38-15z m89-411v36q0 8-5 13t-13 5h-393q-8 0-13-5t-5-13v-36q0-8 5-13t13-5h393q8 0 13 5t5 13z m0 143v36q0 7-5 12t-13 5h-393q-8 0-13-5t-5-12v-36q0-8 5-13t13-5h393q8 0 13 5t5 13z m0 143v35q0 8-5 13t-13 5h-393q-8 0-13-5t-5-13v-35q0-8 5-13t13-5h393q8 0 13 5t5 13z" horiz-adv-x="857.1" />

<glyph glyph-name="users" unicode="&#xe839;" d="M331 350q-90-3-148-71h-75q-45 0-77 22t-31 66q0 197 69 197 4 0 25-11t54-24 66-12q38 0 75 13-3-21-3-37 0-78 45-143z m598-356q0-66-41-105t-108-39h-488q-68 0-108 39t-41 105q0 30 2 58t8 61 14 61 24 54 35 45 48 30 62 11q6 0 24-12t41-26 59-27 76-12 75 12 60 27 41 26 23 12q35 0 63-11t47-30 35-45 24-54 15-61 8-61 2-58z m-572 713q0-59-42-101t-101-42-101 42-42 101 42 101 101 42 101-42 42-101z m393-214q0-89-63-152t-151-62-152 62-63 152 63 151 152 63 151-63 63-151z m321-126q0-43-31-66t-77-22h-75q-57 68-147 71 45 65 45 143 0 16-3 37 37-13 74-13 33 0 67 12t54 24 24 11q69 0 69-197z m-71 340q0-59-42-101t-101-42-101 42-42 101 42 101 101 42 101-42 42-101z" horiz-adv-x="1071.4" />

<glyph glyph-name="paste" unicode="&#xe83a;" d="M429-79h500v358h-233q-22 0-38 15t-15 38v232h-214v-643z m142 804v36q0 7-5 12t-12 6h-393q-7 0-13-6t-5-12v-36q0-7 5-13t13-5h393q7 0 12 5t5 13z m143-375h167l-167 167v-167z m286-71v-375q0-23-16-38t-38-16h-535q-23 0-38 16t-16 38v89h-303q-23 0-38 16t-16 37v750q0 23 16 38t38 16h607q22 0 38-16t15-38v-183q12-7 20-15l228-228q16-16 27-42t11-50z" horiz-adv-x="1000" />

<glyph glyph-name="attach" unicode="&#xe83b;" d="M783 77q0-65-44-109t-109-44q-75 0-131 55l-434 434q-63 64-63 151 0 88 62 150t150 62q88 0 152-63l338-338q5-5 5-12 0-9-17-26t-26-17q-7 0-13 5l-338 339q-44 43-101 43-59 0-100-42t-40-101q0-58 42-101l433-433q35-35 81-35 36 0 59 23t24 59q0 46-36 81l-324 324q-14 14-33 14-16 0-27-11t-11-27q0-18 14-33l229-228q6-6 6-13 0-9-18-26t-26-17q-7 0-12 5l-229 229q-35 34-35 83 0 46 32 78t77 32q49 0 83-36l325-324q55-54 55-131z" horiz-adv-x="785.7" />

<glyph glyph-name="glyph" unicode="&#xe83c;" d="M357 779q-29 0-50-21t-21-51v-286-214l-84 113q-23 30-60 30-29 0-50-21t-21-50q0-24 15-43l214-286q21-29 57-29h401q12 0 22 8t12 19l52 206q13 53 13 108v121q0 23-15 40t-38 16-38-15-16-38h-18v34q0 27-18 45t-44 19q-26 0-44-18t-19-45v-35h-18v50q0 31-20 53t-51 22q-30 0-51-21t-21-51v-53h-17v318q0 31-21 53t-51 22z m0 71q60 0 101-43t42-103v-123q12 1 18 1 55 0 96-38 27 11 56 11 63 0 102-48 15 4 32 4 52 0 88-38t37-90v-121q0-65-16-126l-51-205q-9-36-38-58t-66-23h-401q-33 0-64 15t-50 42l-214 286q-29 38-29 86 0 58 42 100t100 42q39 0 72-19v305q0 59 42 101t101 42z m72-786v215h-18v-215h18z m142 0v215h-17v-215h17z m143 0v215h-18v-215h18z" horiz-adv-x="1000" />

<glyph glyph-name="history" unicode="&#xe83d;" d="M857 350q0-87-34-166t-91-137-137-92-166-34q-96 0-183 41t-147 114q-4 6-4 13t5 11l76 77q6 5 14 5 9-1 13-7 41-53 100-82t126-29q58 0 110 23t92 61 61 91 22 111-22 111-61 91-92 61-110 23q-55 0-105-20t-90-57l77-77q17-16 8-38-10-23-33-23h-250q-15 0-25 11t-11 25v250q0 24 22 33 22 10 39-8l72-72q60 57 137 88t159 31q87 0 166-34t137-92 91-137 34-166z m-357 161v-250q0-8-5-13t-13-5h-178q-8 0-13 5t-5 13v35q0 8 5 13t13 5h125v197q0 8 5 13t12 5h36q8 0 13-5t5-13z" horiz-adv-x="857.1" />

<glyph glyph-name="receipt1" unicode="&#xe83e;" d="M250 850c-138 0-250-112-250-250v-750l0 0h63l62 62 63-62h62l63 62 62-62h63l62 62 63-62h62l63 62 62-62v750c0 138 112 250 250 250h-750z m438-250v-599l-89-89h-11l-88 89-88-89h-11l-88 89-89-89h-11l-88 89-62-63v662c0 103 84 188 187 188h500c-39-53-62-118-62-188z m-563-375h313v-62h-313v62z m0 125h313v-62h-313v62z m0 125h313v-62h-313v62z m500-312h-62v62h62v-62z m0 125h-62v62h62v-62z m0 125h-62v62h62v-62z" horiz-adv-x="1000" />

<glyph glyph-name="money156-1" unicode="&#xe83f;" d="M103 573l383 0 0-61-346 0z m637-384c6 11 18 21 29 30h-714v413h862v-223l55 29v308h-972v-582h723l17 25z m-637 276l696 0 0-61-692 0z m897-59l-150-79-35-111 33-22 78 117c-4 6-4 15 0 22 6 9 19 12 28 6 9-6 12-19 6-28-5-7-13-10-20-9l-78-117 34-22 89 73 15 170 0 0z m-245-250c-12-19-87-131-87-131l53-36 16-10 22-15 15-10c0 0 76 113 88 131 11 17 21 65 21 65l-74 49c0 0-42-25-54-43z" horiz-adv-x="1000" />

<glyph glyph-name="star" unicode="&#xe840;" d="M929 489q0-12-15-27l-203-197 48-279q1-4 1-12 0-11-6-19t-17-9q-10 0-22 7l-251 132-250-132q-13-7-23-7-11 0-17 9t-6 19q0 4 1 12l48 279-203 197q-14 15-14 27 0 21 31 26l280 40 126 254q11 23 27 23t28-23l125-254 280-40q32-5 32-26z" horiz-adv-x="928.6" />

<glyph glyph-name="avatar19" unicode="&#xe841;" d="M260 360l3 4 4-4c32-30 67-46 99-46 34 0 69 15 101 42l3 3 7-4c6-5 17-13 21-16l7-3-1-1 3-1c6-4 12-7 20-11 7-3 14-6 21-8 1 0 33-11 69-27l6-2c35-14 49-32 50-33 53-79 62-252 63-272 0-27-8-34-10-35-120-54-301-68-336-70l-1 0-1 0c-1 1-2 1-4 1h0l-1 0c-9-1-17-1-25-1h-6c-21 1-217 14-341 69-3 1-10 10-11 35 0 2 7 189 63 272 2 4 18 21 48 33 27 8 93 30 129 57 2 0 4 2 5 4 3 3 8 8 15 14z m373-46l-5 1c-8 4-17 8-25 11 12 6 22 12 30 17 1 1 2 2 3 3 3 3 7 7 11 11l2 2 3-2c24-22 50-34 74-34 25 0 51 10 75 31l2 2 5-3c4-4 12-10 16-11l4-2-1-1 3-1c5-3 9-6 15-8 6-3 10-5 15-7 1 0 25-7 52-20l5-1c24-10 35-23 36-24 40-59 46-187 47-202 0-20-6-25-7-26-75-33-183-46-228-50-4 59-19 198-67 270l-2 2c-10 12-32 30-63 42z m-28 214l1 1c4 3 5 7 5 11-9 54-3 77-1 83 15 48 65 70 74 74 2 1 6 2 10 3l1 0 8 1 0-1 2 0c2 1 3 1 5 1l2 1c2 0 21-3 50-12l19-6c37-11 53-31 57-35 29-33 21-83 14-110-1-3-1-6 1-9l2-2c2-3 4-14-3-37-1-7-3-13-7-17-2-2-3-4-3-6-10-58-62-122-116-122-46 0-99 59-109 122 0 2-1 4-3 6-3 4-6 10-8 19-4 16-5 29-1 35z m-402 62l1 1c5 4 7 9 6 15-12 73-4 104-1 112 21 65 88 95 101 101 3 1 8 2 13 3l2 0 11 1 0-1 2 1c2 0 5 0 7 1l3 0c2 0 28-3 66-15l27-9c49-15 72-42 76-47 40-45 29-112 19-148-1-4 0-9 2-12l2-3c4-5 5-21-3-51-1-9-5-17-10-23-2-2-3-4-4-7-13-78-83-166-157-166-62 0-134 81-147 166 0 3-1 5-3 8-6 5-9 13-11 25-7 22-7 40-2 48z" horiz-adv-x="1000" />

<glyph glyph-name="building182" unicode="&#xe842;" d="M408 699h1c0-2-1-4-1-5 0-48 39-87 87-87 48 0 87 39 87 87 0 1 0 3 0 5h1c17 0 32 14 32 32 0 66-54 119-120 119-66 0-119-53-119-119 0-18 14-32 32-32z m24 92v-9c0-9 7-16 16-16 8 0 15 7 15 16v30c6 2 11 4 16 5v-35c0-9 7-16 16-16 9 0 16 7 16 16v35c6-1 11-3 16-5v-30c0-9 7-16 16-16 9 0 16 7 16 16v9c15-16 24-37 24-60h-175c0 23 9 44 24 60z m299-868h-132c1 3 2 6 2 9l0 400 0 0c-5-1-10-1-15-1-23 0-43 12-55 31h-12v-39c18-1 30-16 30-31 0-12-7-22-17-27 0-2 1-3 1-5 0-8-6-14-14-15v-24c0 0 0 0 0 0l12 0c5 0 11-3 15-7 3-5 5-10 4-16l-20-159-7-51c-1-5-5-8-10-8h-2v-57h-32v57h-2c-5 0-9 3-10 8l-6 51-21 159c-1 6 1 11 5 16 3 4 9 7 15 7h11c0 0 0 0 0 0v24c-7 1-13 7-13 15 0 2 0 3 0 5-9 5-16 15-16 27 0 15 12 30 29 31v39h-12c-11-19-32-31-54-31-5 0-10 0-15 1l0 1 0-401c0-3 1-6 1-9h-131c-21 0-37-16-37-37 0-20 16-36 37-36h471c20 0 36 16 36 36 0 21-16 37-36 37z m-27 147c-2 0-5-2-6-4l-21-30c-3-4-2-9 2-12l36-25c2-2 4-2 6-2 2 0 4 2 6 4l15 22c6 8 4 21-5 27l-25 18c-2 2-5 2-8 2z m115 85l-10 25c-4 11-15 16-25 12l-30-11c-5-2-7-8-6-13l13-34c2-4 7-7 11-5l42 15c2 1 3 3 4 5 1 2 1 4 1 6z m-527-117l-30-11c-5-2-7-8-5-13l12-35c2-4 7-6 11-5l42 16c2 1 4 2 5 4 1 2 1 5 0 7l-10 25c-3 10-15 15-25 12z m567-60l-14 11c-3 2-6 3-9 3-4-1-6-2-8-5l-9-11c-4-6-3-13 2-17l14-12c2-1 4-2 7-1 2 0 4 1 5 3l14 17c3 4 2 9-2 12z m-693 11c-2 2-6 3-9 3-3-1-6-2-8-5l-9-11c-4-6-3-13 2-17l15-12c2-1 4-2 6-1 2 0 4 1 6 3l13 17c3 4 2 9-1 12l-15 11z m158 204l-14 11c-3 2-6 3-9 3-4-1-7-2-9-5l-8-11c-4-6-3-13 2-17l14-11c2-2 4-2 7-2 2 0 4 1 5 3l14 17c2 4 2 10-2 12z m-41 192l113-27c3-1 6-1 9-1 8 0 15 3 21 7 7 5 13 12 15 22 3 15-3 30-15 38-3 3-8 5-13 6l-50 12 21 22 6 6v-7l29-7c18-4 32-16 40-30h12v21c0 14 11 24 24 24 13 0 24-10 24-24v-21h12c8 14 22 26 40 30l30 7v7l5-6 21-22-50-12c-5-1-9-3-13-6-12-8-18-23-14-38 2-10 7-17 14-22 7-4 14-7 22-7 3 0 6 0 9 1l112 27c13 3 24 13 27 26 4 12 1 26-8 36l-36 37-89 94c-9 9-17 12-39 12h-133c-23 0-31-3-40-12l-89-94-35-37c-9-10-13-24-9-36 4-13 14-23 27-26z" horiz-adv-x="1000" />

<glyph glyph-name="calendar13" unicode="&#xe843;" d="M886 772c0 6-5 10-10 10h-29c-5 0-10-4-10-10v-61h-322v56c0 5-5 9-10 9h-29c-5 0-10-4-10-9v-56h-322v50c0 5-4 10-10 10h-29c-5 0-9-5-9-10v-50h-96v-793h1000v793h-114c0 0 0 61 0 61z m-34-139c3 2 5 5 5 9v121h9v-121c0-4 2-7 5-9 6-3 10-9 10-16 0-11-9-19-20-19-10 0-19 8-19 19 0 7 4 13 10 16z m-371-5c3 2 5 5 5 8v121h10v-121c0-3 1-6 4-8 6-4 10-10 10-17 0-10-9-19-19-19s-20 9-20 19c0 7 4 13 10 17z m-371-6c3 2 5 5 5 9v121h10v-121c0-4 2-7 4-9 7-3 10-9 10-16 0-11-8-20-19-20-11 0-20 9-20 20 0 6 4 13 10 16z m832 31v-677h-884v677h38v-17c-10-8-15-19-15-30 0-21 17-39 39-39s38 18 38 39c0 12-5 22-14 30v17h322v-12c-9-7-14-18-14-30 0-21 17-38 39-38 21 0 38 17 38 38 0 12-5 23-14 30v12h322v-6c-9-8-14-18-14-30 0-21 17-39 38-39s39 18 39 39c0 12-5 22-14 30v6c0 0 56 0 56 0z m-186-297h-71c-5 0-10-4-10-9v-75c0-5 5-9 10-9h71c5 0 9 4 9 9v75c0 5-4 9-9 9z m-10-74h-51v55h51v-55z m128 74h-71c-5 0-9-4-9-9v-75c0-5 4-9 9-9h71c5 0 10 4 10 9v75c0 5-5 9-10 9z m-9-74h-52v55h52v-55z m9-42h-71c-5 0-9-5-9-10v-74c0-5 4-10 9-10h71c5 0 10 5 10 10v74c0 5-5 10-10 10z m-9-75h-52v55h52v-55z m-109 75h-71c-5 0-10-5-10-10v-74c0-5 5-10 10-10h71c5 0 9 5 9 10v74c0 5-4 10-9 10z m-10-75h-51v55h51v-55z m-220 191h-71c-5 0-9-4-9-9v-75c0-5 4-9 9-9h71c5 0 10 4 10 9v75c0 5-5 9-10 9z m-10-74h-51v55h51v-55z m128 74h-70c-6 0-10-4-10-9v-75c0-5 4-9 10-9h70c6 0 10 4 10 9v75c0 5-4 9-10 9z m-9-74h-52v55h52v-55z m9-42h-70c-6 0-10-5-10-10v-74c0-5 4-10 10-10h70c6 0 10 5 10 10v74c0 5-4 10-10 10z m-9-75h-52v55h52v-55z m-109 75h-71c-5 0-9-5-9-10v-74c0-5 4-10 9-10h71c5 0 10 5 10 10v74c0 5-5 10-10 10z m-10-75h-51v55h51v-55z m-220 191h-70c-6 0-10-4-10-9v-75c0-5 4-9 10-9h70c6 0 10 4 10 9v75c0 5-4 9-10 9z m-9-74h-52v55h52v-55h0z m128 74h-71c-5 0-10-4-10-9v-75c0-5 5-9 10-9h71c5 0 9 4 9 9v75c0 5-4 9-9 9z m-10-74h-51v55h51c0 0 0-55 0-55z m10-42h-71c-5 0-10-5-10-10v-74c0-5 5-10 10-10h71c5 0 9 5 9 10v74c0 5-4 10-9 10z m-10-75h-51v55h51c0 0 0-55 0-55z m-109 75h-70c-6 0-10-5-10-10v-74c0-5 4-10 10-10h70c6 0 10 5 10 10v74c0 5-4 10-10 10z m-9-75h-52v55h52v-55h0z m128-38h-71c-5 0-10-5-10-10v-74c0-6 5-10 10-10h71c5 0 9 4 9 10v74c0 5-4 10-9 10z m-10-75h-51v55h51c0 0 0-55 0-55z m-109 75h-70c-6 0-10-5-10-10v-74c0-6 4-10 10-10h70c6 0 10 4 10 10v74c0 5-4 10-10 10z m-9-75h-52v55h52v-55h0z m-103 305h-70c-6 0-10-5-10-10v-74c0-5 4-10 10-10h70c6 0 10 5 10 10v74c0 5-4 10-10 10z m-9-74h-52v55h52v-55z m9-43h-70c-6 0-10-4-10-9v-75c0-5 4-9 10-9h70c6 0 10 4 10 9v75c0 5-4 9-10 9z m-9-74h-52v55h52v-55z m9-39h-70c-6 0-10-4-10-9v-75c0-5 4-9 10-9h70c6 0 10 4 10 9v75c0 5-4 9-10 9z m-9-74h-52v55h52v-55z" horiz-adv-x="1000" />

<glyph glyph-name="document199" unicode="&#xe844;" d="M310 429c-9-8-20-11-35-12v82c18-6 30-12 38-18 6-6 11-16 11-26-2-11-6-20-14-26z m-66 215c-13-1-24-6-32-12-8-8-12-17-12-26 0-11 3-18 9-25 6-6 18-12 35-18v81l0 0z m718-174v-507c0-63-51-113-113-113h-698c-62 0-113 50-113 113v774c0 63 51 113 113 113h437c44 0 65-12 93-41l238-241c32-31 43-51 43-98z m-502 113h168c19 0 35 15 35 34v26c0 18-16 33-35 33h-168v-93z m-216-76v-90c-27 4-53 16-79 39l-34-39c34-29 72-46 113-51v-33h29v33c32 2 57 11 77 28 18 17 29 39 29 65 0 28-8 48-25 62s-43 25-78 33h-1v87c24-3 46-13 65-27l31 42c-31 20-63 33-96 34v26h-29v-23c-29-1-54-11-72-27-18-17-29-40-29-66 0-26 9-46 24-61 16-12 40-25 75-32z m628-495c0 18-16 34-35 34h-677c-20 0-33-16-33-34v-26c0-18 15-34 33-34h677c18 0 35 15 35 34v26l0 0z m0 211c0 18-16 33-35 33h-677c-20 0-33-15-33-33v-26c0-18 15-34 33-34h677c18 0 35 15 35 34v26l0 0z m0 210c0 19-16 34-35 34h-377v-93h377c18 0 35 15 35 34v25h0z" horiz-adv-x="1000" />

<glyph glyph-name="download48" unicode="&#xe845;" d="M991 121c-8 8-21 8-29 0l-202-202v911c0 11-9 20-20 20s-20-9-20-20v-911l-202 202c-8 8-21 8-29 0-8-8-8-20 0-28l236-237c4-4 10-6 15-6s10 2 14 6l237 237c8 8 8 20 0 28z m-967 688h611c11 0 20 9 20 21s-9 20-20 20h-611c-12 0-21-9-21-20s9-21 21-21z m0-238h611c11 0 20 9 20 21s-9 20-20 20h-611c-12 0-21-9-21-20s9-21 21-21z m0-238h611c11 0 20 9 20 20s-9 21-20 21h-611c-12 0-21-9-21-21s9-20 21-20z m398-198h-398c-12 0-21-9-21-20s9-20 21-20h398c11 0 20 9 20 20s-9 20-20 20z m0-238h-398c-12 0-21-9-21-20s9-21 21-21h398c11 0 20 10 20 21s-9 20-20 20z" horiz-adv-x="1000" />

<glyph glyph-name="file207" unicode="&#xe846;" d="M561 778c-16 0-33-4-47-10l-489-241c-14-7-25-19-25-33s11-26 25-33l275-136c2-1 4-1 7-1l275 5c2 0 4 0 6 1l387 191c14 7 25 18 25 33s-11 26-25 33l-367 181c-14 6-30 10-47 10z m0-30c13 0 26-2 35-6l367-181c8-4 8-7 8-7s0-3-8-7l-381-188-137 67c-2 1-4 2-7 2-2-1-4-1-5-2l-137-67-258 127c-9 5-9 8-9 8s0 3 9 7l489 241c8 4 21 6 34 6z m41-66c-4 0-7-4-7-8 0-2 1-5 4-6l204-100c3-2 7-1 9 3 2 3 1 7-3 9 0 0 0 0 0 0l-204 101c-1 0-2 1-3 1z m-102-51c-4 0-7-3-7-7 0-3 1-5 4-6l204-101c3-1 8 0 9 3 2 4 1 8-3 10 0 0 0 0 0 0l-204 101c-1 0-2 0-3 0z m-102-50c-4 0-7-3-7-7 0-3 2-5 4-6l204-101c3-2 8 0 9 3s1 8-3 10l-204 100c-1 1-2 1-3 1z m-176-5c-1 0-2 0-3-1l-153-75c-4-2-5-6-4-10 1-1 2-2 4-3l71-35c4-2 8 0 10 3 2 4 0 8-3 10 0 0-1 0-1 0l-58 29 140 69c3 1 5 6 3 9-1 3-3 4-6 4z m217-179l83-41-173-3 90 44z m541-1c-3 0-5-1-8-2l-539-262-407 204c-9 5-19 1-24-7-4-9-1-19 8-23 0 0 0-1 0-1l415-208c5-2 11-2 15 0l547 266c9 4 13 14 9 23-3 6-9 10-16 10z m-376-139c-1 0-3 0-4-1l-169-85-152 78c-5 2-10 0-12-4-2-4-1-9 4-12l156-79c2-2 5-2 8 0l173 86c4 2 6 8 4 12-1 3-4 5-8 5z m376-34c-3 0-5-1-8-2l-539-262-407 204c-9 5-19 2-24-7s-1-19 7-23c1 0 1 0 1-1l415-208c5-3 11-3 15 0l547 266c9 4 13 14 9 23-3 6-9 10-16 10z m-376-139c-1 0-3 0-4-1l-169-85-152 78c-5 2-10 1-12-4-2-4-1-9 3-11 0 0 1 0 1-1l156-79c2-2 5-2 8 0l173 86c4 2 6 8 4 12-1 3-4 5-8 5z" horiz-adv-x="1000" />

<glyph glyph-name="house112" unicode="&#xe847;" d="M43 369l415 16 253 292 242-362 47 7-284 403-290-53v51l-24 5-72-15v-59l-97-18-233-212v-56c0 0 24 1 43 1z m666 283l-243-282-399-16v-338l366-44v0l229 27v263l105 0v-251l169 21v281l-227 339z m-486-530l-106 6v136l106 0v-142z m179-11l-123 8v145l123 0v-153z m208 6l-130-8v154l130 0v-146z m295 19l-98-7v134l98 0v-127z" horiz-adv-x="1000" />

<glyph glyph-name="labor" unicode="&#xe848;" d="M328 484c25-15 53-22 80-22 28 0 56 7 81 21 53 32 84 92 87 166h44c13 0 24 10 24 23s-11 23-24 23h-67c0 0 0 0 0 0h-265c9 63 54 109 107 109h32c35 0 68-21 88-55 7-11 21-14 32-8 11 7 14 21 8 32-29 48-77 77-128 77h-32c-85 0-154-79-155-177-3-85 29-154 88-189z m202 165c-3-58-26-103-65-126-35-21-78-21-113 0-39 23-62 68-65 126h243z m298-642h-120v90c0 13-10 23-23 23h-206c-13 0-23-10-23-23v-90h-40c-12 0-22-9-22-22v-112c0-13 10-23 22-23h412c13 0 23 10 23 23v112c0 13-10 22-23 22z m-229-111h-159v65h159v-65z m-97 111v67h160v-67h-40-120z m303-111h-159v65h159v-65z m-487 377c-11 0-21-8-22-19l-31-178c-2-13 6-24 19-27 13-2 24 6 27 19l27 158h141l4-22c2-13 14-21 27-19 12 2 21 14 18 27l-7 42c-2 11-11 19-23 19h-9v78c39-17 69-48 78-95l10-52c2-13 14-21 27-19 12 3 21 15 19 27l-10 53c-19 103-117 149-205 149-88 0-185-46-204-149l-55-294c-1-7 1-15 5-20 5-5 11-9 18-9h127c12 0 23 11 23 23 0 13-11 24-23 24h-99l49 267c9 46 41 78 78 95v-78h-9z m55 92c23 4 46 4 69 0v-92h-69v92z" horiz-adv-x="1000" />

<glyph glyph-name="money156-2" unicode="&#xe849;" d="M103 573l383 0 0-61-346 0z m637-384c6 11 18 21 29 30h-714v413h862v-223l55 29v308h-972v-582h723l17 25z m-637 276l696 0 0-61-692 0z m897-59l-150-79-35-111 33-22 78 117c-4 6-4 15 0 22 6 9 19 12 28 6 9-6 12-19 6-28-5-7-13-10-20-9l-78-117 34-22 89 73 15 170 0 0z m-245-250c-12-19-87-131-87-131l53-36 16-10 22-15 15-10c0 0 76 113 88 131 11 17 21 65 21 65l-74 49c0 0-42-25-54-43z" horiz-adv-x="1000" />

<glyph glyph-name="open131" unicode="&#xe84a;" d="M994 249l-177-334c-8-17-33-35-52-35l-709 0c-14 0-29 6-39 17-11 10-17 25-17 40l0 550c0 31 25 56 57 56l51 0v-48h-34c-7 0-14-2-18-7-5-5-8-11-8-18l0-516c0-14 12-26 26-26h35l168 339c9 19 27 34 46 34h410l0 137c27-3 48-25 48-52v-85h188c22 0 41-22 25-52z m-853-150c-2 169 0 674 0 674 0 26 21 47 46 47h371c6 0 11-3 15-7l120-130c4-4 6-9 6-15v-337h-39v308c0 6-4 10-10 10h-91c-11 0-20 9-20 19v103c0 6-4 10-10 10h-342c-4 0-7-3-7-8v-632l-30-60c0 0-9 1-9 18z m437 589h58l-58 63v-63z m21-79h-358c-13 0-24-10-24-24 0-13 11-23 24-23h358c13 0 24 10 24 23 0 14-11 24-24 24z m24-163c0 13-11 24-24 24h-358c-13 0-24-11-24-24 0-13 11-24 24-24h358c13 0 24 11 24 24z m-406-140c0-13 11-24 24-24h9c15 42 52 48 52 48h-61c-13 0-24-11-24-24z" horiz-adv-x="1000" />

<glyph glyph-name="receipt1-1" unicode="&#xe84b;" d="M250 850c-138 0-250-112-250-250v-750l0 0h63l62 62 63-62h62l63 62 62-62h63l62 62 63-62h62l63 62 62-62v750c0 138 112 250 250 250h-750z m438-250v-599l-89-89h-11l-88 89-88-89h-11l-88 89-89-89h-11l-88 89-62-63v662c0 103 84 188 187 188h500c-39-53-62-118-62-188z m-563-375h313v-62h-313v62z m0 125h313v-62h-313v62z m0 125h313v-62h-313v62z m500-312h-62v62h62v-62z m0 125h-62v62h62v-62z m0 125h-62v62h62v-62z" horiz-adv-x="1000" />

<glyph glyph-name="targets7" unicode="&#xe84c;" d="M456 350c0 25 19 45 44 45 23 0 42-20 42-45 0-23-19-42-42-42-25 0-44 19-44 42z m143 369l-27-86c-3-9 2-18 10-20 2-1 4-1 5-1 7 0 13 4 16 11l27 87c3 8-2 17-10 20-9 3-18-2-21-11z m-237-128c3 0 6 0 8 2 8 4 11 14 7 22l-44 79c-4 8-14 11-22 7-7-4-10-14-6-22l43-80c3-5 9-8 14-8z m395-120c2 0 5 1 8 2l79 44c8 4 11 14 7 22-4 7-14 10-22 6l-80-43c-8-4-11-14-6-22 3-6 8-9 14-9z m112-220l-86 27c-9 3-18-2-20-10-3-9 2-18 10-20l87-28c1-1 3-1 5-1 6 0 13 5 15 11 3 9-2 18-11 21z m-489-281c2 0 4-1 5-1 7 0 14 5 16 12l27 86c3 9-2 18-10 20-9 3-18-1-20-10l-28-87c-3-8 2-17 10-20z m250 137c-8-4-11-14-7-21l44-80c3-6 8-9 14-9 3 0 5 1 8 2 8 5 10 14 6 22l-43 80c-4 8-14 11-22 6z m-394 120l-80-44c-8-4-11-14-7-22 3-5 9-8 14-8 3 0 6 1 8 2l80 43c8 5 11 14 6 22-4 8-14 11-21 7z m-9 226l-86 27c-9 3-18-2-21-10-3-9 2-18 11-21l86-27c2-1 3-1 5-1 7 0 13 4 15 11 3 9-2 18-10 21z m275 9c13 0 24 11 24 24l1 340c0 13-11 24-24 24 0 0 0 0 0 0-14 0-24-11-24-24l-2-340c0-13 11-24 25-24 0 0 0 0 0 0z m-227 56c4 0 9 2 12 6 6 7 5 17-2 23l-71 57c-7 6-17 5-23-2-5-7-4-17 3-23l70-57c3-2 7-4 11-4z m410 41c4 0 9 2 12 6l57 71c6 7 5 17-2 23-7 5-17 4-23-3l-57-70c-6-7-5-17 2-23 3-3 7-4 11-4z m291-188l-323 2c-1 0-1 0-1 0-13 0-24-11-24-25 0-13 11-24 24-24l324-1c0 0 0 0 0 0 13 0 24 11 24 24 0 14-11 24-24 24z m-479-521c0 0 0 0 0 0 14 0 24 11 24 24l2 340c0 13-11 24-25 24 0 0 0 0 0 0-13 0-24-11-24-24l-1-340c0-13 11-24 24-24z m216 326c-6-7-5-17 2-23l71-57c3-3 6-4 10-4 5 0 9 2 13 6 5 7 4 17-3 23l-70 57c-7 6-17 5-23-2z m-410-41l-57-71c-6-7-5-17 2-23 3-2 7-3 10-3 5 0 10 2 13 6l57 70c6 7 5 18-2 23-7 6-17 5-23-2z m336 455c5 0 11 3 14 8l44 80c4 8 1 18-7 22s-18 1-22-6l-43-80c-5-8-2-18 6-22 2-1 5-2 8-2z m-209 43l-28 87c-2 8-11 13-20 10-8-2-13-11-11-20l28-86c2-7 8-12 15-12 2 0 3 0 5 1 9 3 13 12 11 20z m348-213c2 0 4 0 5 1l87 27c8 2 13 12 10 20-2 9-11 13-20 11l-86-28c-9-2-14-11-11-20 2-7 9-11 15-11z m-36-201c-4-8-1-18 6-22l80-43c3-2 5-2 8-2 6 0 11 3 14 8 4 8 1 18-6 22l-80 44c-8 4-18 1-22-7z m-395-117l-43-80c-5-8-2-18 6-22 2-1 5-2 8-2 5 0 11 3 14 8l44 80c4 8 1 18-7 22-8 4-18 1-22-6z m251-122c2-7 8-11 15-11 2 0 3 0 5 1 9 2 13 11 11 20l-28 87c-2 8-11 13-20 10-8-3-13-12-10-20l27-87z m-381 300l-87-28c-8-2-13-11-10-20 2-7 8-11 15-11 2 0 3 0 5 0l87 28c8 2 13 11 10 20-3 9-12 13-20 11z m41 201c4 8 1 18-6 22l-80 44c-8 4-18 1-22-7-4-8-1-18 7-22l79-43c3-2 5-2 8-2 6 0 11 3 14 8z m56 77c4 0 7 1 10 4 7 6 8 16 2 23l-58 69c-6 7-16 8-23 2-7-6-7-16-2-23l59-69c3-4 7-6 12-6z m410-38c4 0 8 1 11 4l69 58c7 6 8 16 2 23-5 7-16 8-23 2l-69-59c-7-5-8-15-2-22 3-4 8-6 12-6z m-48-382c-7-6-8-16-2-23l58-69c3-4 8-6 12-6 4 0 8 1 11 4 7 6 8 16 2 23l-59 69c-5 7-15 8-22 2z m-411 38l-69-58c-7-6-8-16-2-23 3-3 8-5 12-5 4 0 8 1 11 3l69 59c7 5 8 16 2 22-6 7-16 8-23 2z m83 151c0 0 0 0 0 0 13 0 24 11 24 25 0 13-11 24-24 24l-324 1c0 0 0 0 0 0-13 0-24-11-24-24 0-13 11-24 24-24l324-2z" horiz-adv-x="1000" />

<glyph glyph-name="toolbox3" unicode="&#xe84d;" d="M149 605c2 1 4 2 5 3 1-2 2-3 3-4l109-108c6 8 16 13 27 13 4 0 7-1 10-2l14-4 8 29-120 120c-2 2-4 3-6 5l0 1c0 1 1 2 1 3 0 1 1 1 1 2 0 1 1 2 1 3 1 1 1 3 2 4l2 5 3 4c1 2 2 4 4 6 0 1 1 3 2 4 1 1 1 2 2 3 2 2 3 4 5 6l1 1c3 3 5 5 8 8 1 1 1 1 2 2 1 1 2 1 3 2l5 4c0 0 0 0 1 0 2 2 4 3 7 5 1 1 2 1 3 2 2 1 5 2 7 3 1 1 3 1 4 2 1 0 1 0 2 1 1 0 2 0 2 1l6 1c1 1 3 1 4 1 2 1 4 1 5 2l15 2c3 0 5 1 6 3 2 1 3 4 3 6 1 5-3 9-7 11l-15 4c-3 1-6 1-9 2-1 0-2 0-3 0l-7 1c-2 1-4 1-6 1-1 0-1 0-2 0-2 0-3 0-4 0-4 0-9 0-13 0l-3-1c-5 0-10 0-15-2l-8-1c-3-1-5-1-7-2l-3-1c-6-2-11-4-17-6l-1-1c-4-2-8-4-13-6l-3-2c0 0 0 0-1 0-1-1-2-2-4-3-3-2-7-4-10-7l-6-4c0 0-1 0-1 0l-6-5c-1-1-2-2-4-3-10-2-20-7-28-15l-12-12c-5-5-11-13-15-22-19 4-45-24-83-63l86-85c29 29 66 64 63 83z m673 5l54-10 55 69c10 13 27 18 43 15v30h-82v-65h-87l17-39z m-491-18l17 57-73 0z m643-293v208c-2-2-3-4-5-6-23-28-53-49-86-60h9v-142h-190-28l103 139c1 3 3 5 5 8 57-15 119 4 158 53 29 36 40 82 30 127-1 5-4 9-9 10-6 1-11 0-14-4l-66-84-85 17-36 80 66 83c3 4 4 9 1 14-2 5-7 7-12 7-46-1-88-22-117-58-38-49-43-115-16-167-2-2-4-4-6-7l-132-157 32-32c9-8 14-18 17-29h-14c-2 7-7 14-12 20l-182 182-5-16 12-4c10-3 17-9 22-17 5-9 6-19 3-28-2-5-4-10-8-13 1-9 1-17-2-26l-16-55 43-43h-14-30-30l32 108c2 9 2 19 0 27 4 3 8 7 9 12 3 10-2 21-13 24l-28 8 77 262 3-1 20 39 8 60-34 10-26-55-4-44 3 0-78-261-30 8c-10 3-21-2-24-13-1-5-1-10 2-14-8-6-13-14-16-23l-44-147h-29-11v142h54l9 33c3 8 4 10 9 17l-87 89c-12-16-24-33-42-51l-25-25v-205h-26v-285c0-90 73-162 163-162h605c90 0 163 72 163 162v285h-26z m-639 101c3 11 15 17 26 14 10-3 17-15 13-26l-26-89h-43l30 101z m-66 20c4 10 15 17 26 13 11-3 17-14 14-25l-33-109h-42l35 121z m172 229l-32-106 102-102h54l91 108c-13 32-16 67-9 100h-206z" horiz-adv-x="1000" />

<glyph glyph-name="verified4" unicode="&#xe84e;" d="M245 483c0 9 7 17 16 17h390c9 0 16-8 16-17 0-9-7-16-16-16h-390c-9 0-16 7-16 16z m16-158h390c9 0 16 8 16 17 0 9-7 16-16 16h-390c-9 0-16-7-16-16s7-17 16-17z m168-109h-168c-9 0-16-7-16-16 0-9 7-16 16-16h168c10 0 17 7 17 16 0 9-7 16-17 16z m-21-141h-147c-9 0-16-8-16-17 0-9 7-16 16-16h147c9 0 16 7 16 16 0 9-7 17-16 17z m461-19c0-114-92-206-205-206-53 0-102 20-138 53 0 0 0 0 0 0h-379c-9 0-16 8-16 17v764c0 9 7 17 16 17h138v45c0 9 7 16 16 16h67c0 0 0 0 0 1 0 48 40 87 88 87 48 0 87-39 87-87 0-1 0-1 0-1h67c9 0 17-7 17-16v-45h138c9 0 16-8 16-17v-459c53-38 88-99 88-169z m-551 593h276v80h-69c-5 0-10 2-13 6s-5 10-3 14c1 6 2 10 2 14 0 30-25 54-55 54s-55-24-55-54c0-4 1-9 2-14 1-4 0-10-3-14-3-4-8-6-13-6h-69v-80z m-155-713h334c-25 34-39 75-39 120 0 113 92 205 206 205 30 0 58-6 84-18v425h-122v-35c0-9-7-17-16-17h-309c-9 0-16 8-16 17v35h-122l0-732 0 0z m674 120c0 95-78 173-173 173s-173-78-173-173c0-96 77-173 173-173s173 77 173 173z m-83 68l-100-96-68 54c-7 6-17 4-23-3-6-7-4-17 3-23l79-63c3-2 6-3 10-3 4 0 8 1 11 4l110 106c7 6 7 17 1 23-6 7-17 7-23 1z" horiz-adv-x="1000" />

<glyph glyph-name="wall-clock" unicode="&#xe84f;" d="M144 347l88 0 0-89-87 0z m0-140l88 0 0-89-87 0z m148 280l89 0 0-89-87 0z m0-140l89 0 0-89-87 0z m0-140l89 0 0-89-87 0z m531 267v258c0 34-28 62-62 62h-699c-34 0-62-28-62-62v-699c0-34 28-62 62-62h456c51-41 115-65 185-65 164 0 297 133 297 297 0 121-73 225-177 271z m-553 259h283v-73h-283v73z m-194-143h671v-94c-15 2-29 3-44 3-65 0-125-21-174-57v45h-89v-89h41c-46-52-74-120-74-195 0-54 14-104 39-147h-370v534z m600-146c0 15 12 27 27 27 15 0 27-12 27-27 0-15-12-27-27-27-15 0-27 12-27 27z m-187-241c0-15-12-28-27-28-15 0-28 13-28 28 0 15 13 27 28 27 15 0 27-12 27-27z m214-269c-15 0-27 12-27 27 0 15 12 27 27 27 15 0 27-12 27-27 0-15-12-27-27-27z m165 391l-114-113c1-4 2-7 2-11 0-29-24-53-53-53-29 0-52 22-53 50l-121 94c-10 9-13 23-5 33 7 9 22 11 32 2l111-86c10 9 22 15 36 15 10 0 18-3 26-7l107 108c10 10 26 11 34 2 9-9 8-24-2-34z m77-150c-15 0-27 13-27 28s12 27 27 27c15 0 27-12 27-27s-12-28-27-28z" horiz-adv-x="1000" />

<glyph glyph-name="worker5" unicode="&#xe850;" d="M801 274l-67-105-45 18-155-283 182 0 80 106 69 0 73-106 62 0-142 354z m55-282l-51 0-67-88 179 0z m-785 82l-53-170h73l59 169 16 131h56l50-136-31-164h71l35 186-35 98-13 44 192-108-36-63 83-48 88 153-83 48-35-60-222 127-12 42 21 88 10-81 15-39 60-35-25 88-19 169-62 3-11 30c41 8 73 44 75 87l-186 25c-2-7-2-13-2-20 0-33 16-61 41-78l-1 0-37-32-48 4-105-91v-140l83-20-12-207z m-18 278v42l35 32v-82l-35 8z m284 299l28-4c4 84-32 139-99 148-5 1-10 1-16 1-58 0-101-43-118-118l25-3 180-24z" horiz-adv-x="1000" />

<glyph glyph-name="ok-squared" unicode="&#xe851;" d="M382 125l343 343q10 10 10 25t-10 25l-57 57q-11 10-25 10t-25-10l-261-261-118 118q-10 11-25 11t-25-11l-57-57q-10-10-10-25t10-25l200-200q11-10 25-10t25 10z m475 493v-536q0-66-47-113t-114-48h-535q-67 0-114 48t-47 113v536q0 66 47 113t114 48h535q67 0 114-48t47-113z" horiz-adv-x="857.1" />

<glyph glyph-name="play-circled" unicode="&#xe852;" d="M429 779q116 0 215-58t156-156 57-215-57-215-156-156-215-58-216 58-155 156-58 215 58 215 155 156 216 58z m214-460q18 10 18 31t-18 31l-304 178q-17 11-35 1-18-11-18-31v-358q0-20 18-31 9-4 17-4 10 0 18 5z" horiz-adv-x="857.1" />

<glyph glyph-name="check-empty-1" unicode="&#xe853;" d="M625 707h-464q-37 0-63-26t-27-63v-464q0-37 27-63t63-27h464q37 0 63 27t26 63v464q0 37-26 63t-63 26z m161-89v-464q0-67-47-114t-114-47h-464q-67 0-114 47t-47 114v464q0 66 47 113t114 48h464q66 0 114-48t47-113z" horiz-adv-x="785.7" />

<glyph glyph-name="left-open-big" unicode="&#xe854;" d="M452-20q26-26 0-48-26-26-48 0l-392 394q-24 24 0 50l392 394q22 26 48 0 26-22 0-48l-358-372z" horiz-adv-x="465" />

<glyph glyph-name="right-open-big" unicode="&#xe855;" d="M13-20l358 370-358 372q-26 26 0 48 26 26 48 0l392-394q24-26 0-50l-392-394q-22-26-48 0-26 22 0 48z" horiz-adv-x="465" />

<glyph glyph-name="ok-1" unicode="&#xe856;" d="M0 339q0-35 24-60l246-239q24-25 60-25 36 0 60 25l505 495q25 24 25 59t-25 58q-25 25-60 25t-60-25l-445-435-185 181q-25 24-60 24t-61-24q-24-24-24-59z" horiz-adv-x="920.4" />

<glyph glyph-name="info-circled" unicode="&#xe857;" d="M454 810q190 2 326-130t140-322q2-190-131-327t-323-141q-190-2-327 131t-139 323q-4 190 130 327t324 139z m52-152q-42 0-65-24t-23-50q-2-28 15-44t49-16q38 0 61 22t23 54q0 58-60 58z m-120-594q30 0 84 26t106 78l-18 24q-48-36-72-36-14 0-4 38l42 160q26 96-22 96-30 0-89-29t-115-75l16-26q52 34 74 34 12 0 0-34l-36-152q-26-104 34-104z" horiz-adv-x="920" />

<glyph glyph-name="ok-2" unicode="&#xe858;" d="M0 339q0-35 24-60l246-239q24-25 60-25 36 0 60 25l505 495q25 24 25 59t-25 58q-25 25-60 25t-60-25l-445-435-185 181q-25 24-60 24t-61-24q-24-24-24-59z" horiz-adv-x="920.4" />

<glyph glyph-name="cancel-circled-outline" unicode="&#xe859;" d="M469 819q194 0 331-137t138-332-138-331-331-138-331 138-138 331 138 332 331 137z m0-834q151 0 258 107t107 258-107 258-258 107-258-107-107-258 107-258 258-107z m36 365l139-137q12-13 5-29t-24-16q-11 0-19 7l-137 139-138-139q-7-7-18-7-17 0-24 16t5 29l139 137-139 138q-18 17 1 36t36 1l138-138 137 138q18 18 37-1t1-36z" horiz-adv-x="938" />

<glyph glyph-name="info-circled-1" unicode="&#xe85a;" d="M454 810q190 2 326-130t140-322q2-190-131-327t-323-141q-190-2-327 131t-139 323q-4 190 130 327t324 139z m52-152q-42 0-65-24t-23-50q-2-28 15-44t49-16q38 0 61 22t23 54q0 58-60 58z m-120-594q30 0 84 26t106 78l-18 24q-48-36-72-36-14 0-4 38l42 160q26 96-22 96-30 0-89-29t-115-75l16-26q52 34 74 34 12 0 0-34l-36-152q-26-104 34-104z" horiz-adv-x="920" />

<glyph glyph-name="ok-3" unicode="&#xe85b;" d="M0 339q0-35 24-60l246-239q24-25 60-25 36 0 60 25l505 495q25 24 25 59t-25 58q-25 25-60 25t-60-25l-445-435-185 181q-25 24-60 24t-61-24q-24-24-24-59z" horiz-adv-x="920.4" />

<glyph glyph-name="cancel-circled-outline-1" unicode="&#xe85c;" d="M469 819q194 0 331-137t138-332-138-331-331-138-331 138-138 331 138 332 331 137z m0-834q151 0 258 107t107 258-107 258-258 107-258-107-107-258 107-258 258-107z m36 365l139-137q12-13 5-29t-24-16q-11 0-19 7l-137 139-138-139q-7-7-18-7-17 0-24 16t5 29l139 137-139 138q-18 17 1 36t36 1l138-138 137 138q18 18 37-1t1-36z" horiz-adv-x="938" />

<glyph glyph-name="info-circled-2" unicode="&#xe85d;" d="M454 810q190 2 326-130t140-322q2-190-131-327t-323-141q-190-2-327 131t-139 323q-4 190 130 327t324 139z m52-152q-42 0-65-24t-23-50q-2-28 15-44t49-16q38 0 61 22t23 54q0 58-60 58z m-120-594q30 0 84 26t106 78l-18 24q-48-36-72-36-14 0-4 38l42 160q26 96-22 96-30 0-89-29t-115-75l16-26q52 34 74 34 12 0 0-34l-36-152q-26-104 34-104z" horiz-adv-x="920" />

<glyph glyph-name="cancel-circled-outline-2" unicode="&#xe85e;" d="M469 819q194 0 331-137t138-332-138-331-331-138-331 138-138 331 138 332 331 137z m0-834q151 0 258 107t107 258-107 258-258 107-258-107-107-258 107-258 258-107z m36 365l139-137q12-13 5-29t-24-16q-11 0-19 7l-137 139-138-139q-7-7-18-7-17 0-24 16t5 29l139 137-139 138q-18 17 1 36t36 1l138-138 137 138q18 18 37-1t1-36z" horiz-adv-x="938" />

<glyph glyph-name="interactiv-kiosk" unicode="&#xe85f;" d="M787 65c0 6-3 11-8 14l-189 109v245l88 248c2 6 0 13-5 17l-39 34c-1 1-2 2-3 2l-197 114c-4 2-9 3-13 1-5-2-8-5-10-10l-99-284c0-2-1-4-1-6v-389l-90-52c-5-3-8-9-8-14 0 0 0 0 0 0v-57c0-6 3-11 8-14l296-171c2-1 5-2 8-2s5 1 8 2l246 142c5 3 8 9 8 14 0 0 0 57 0 57z m-228 376c-1-2-1-4-1-6v-417l-17-11 0 426 90 260 13-12-85-240z m-216 106l92 264 169-98-94-272c-1-2-1-4-1-6l0-428-166 96v444z m-32-424v-29c0-6 4-11 8-14l198-114c2-1 5-2 8-2s5 1 8 2l49 28c5 3 8 9 8 14v144l149-87-214-124-264 153 50 29z m-66-57l264-152v-20l-264 152v20z m296-172v20l214 124 0-20-214-124z m39 821l-123 71c-4 2-9 2-13 1-5-2-8-6-10-10l-79-230c-3-7 0-15 7-19l122-70c3-2 6-2 8-2 2 0 4 0 6 1 4 1 8 5 9 9l80 230c2 7-1 15-7 19z m-96-220l-95 54 69 199 94-54-68-199z m-1-74l-98 57c-8 4-18 2-22-6-4-8-2-17 6-22l98-57c3-1 6-2 8-2 6 0 11 3 14 8 5 8 2 17-6 22z" horiz-adv-x="1000" />

<glyph glyph-name="search" unicode="&#xe860;" d="M643 386q0 103-73 176t-177 74-177-74-73-176 73-177 177-73 177 73 73 177z m286-465q0-29-22-50t-50-21q-30 0-50 21l-191 191q-100-69-223-69-80 0-153 31t-125 84-84 125-31 153 31 152 84 126 125 84 153 31 153-31 125-84 84-126 31-152q0-123-69-223l191-191q21-21 21-51z" horiz-adv-x="928.6" />

<glyph glyph-name="print" unicode="&#xe861;" d="M866 564c40 0 75-35 75-78l0-366c0-42-35-77-75-77l-76 0 34-153-691 0 27 153-82 0c-45 0-78 35-78 77l0 366c0 43 33 78 78 78l96 0 0 117 34 0 0 129 527 0 0-129 34 0 0-117 97 0z m-623 199l0-292 457 0 0 292-457 0z m-113-389c30 0 55 24 55 54 0 28-25 53-55 53-29 0-54-25-54-53 0-30 25-54 54-54z m63-438l567 0-47 242-484 0z m252 113l-139 0 0 35 139 0 0-35z m198 0l-139 0 0 35 139 0 0-35z" horiz-adv-x="941" />

<glyph glyph-name="target" unicode="&#xe862;" d="M668 279h-61q-14 0-25 10t-11 25v72q0 14 11 25t25 10h61q-18 61-63 106t-105 62v-60q0-15-11-25t-25-11h-71q-15 0-25 11t-11 25v60q-60-17-105-62t-63-106h61q15 0 25-10t11-25v-72q0-14-11-25t-25-10h-61q18-61 63-106t105-62v60q0 15 11 26t25 10h71q15 0 25-10t11-26v-60q60 18 105 62t63 106z m189 107v-72q0-14-10-25t-26-10h-79q-21-90-87-156t-155-86v-80q0-14-11-25t-25-11h-71q-15 0-25 11t-11 25v80q-90 21-155 86t-86 156h-80q-15 0-25 10t-11 25v72q0 14 11 25t25 10h80q20 90 86 156t155 86v80q0 14 11 25t25 11h71q15 0 25-11t11-25v-80q90-21 155-86t87-156h79q15 0 26-10t10-25z" horiz-adv-x="857.1" />

<glyph glyph-name="download" unicode="&#xe863;" d="M714 100q0 15-10 25t-25 11-25-11-11-25 11-25 25-11 25 11 10 25z m143 0q0 15-10 25t-26 11-25-11-10-25 10-25 25-11 26 11 10 25z m72 125v-179q0-22-16-37t-38-16h-821q-23 0-38 16t-16 37v179q0 22 16 38t38 16h259l75-76q33-32 76-32t76 32l76 76h259q22 0 38-16t16-38z m-182 318q10-23-8-39l-250-250q-10-11-25-11t-25 11l-250 250q-17 16-8 39 10 21 33 21h143v250q0 15 11 25t25 11h143q14 0 25-11t10-25v-250h143q24 0 33-21z" horiz-adv-x="928.6" />

<glyph glyph-name="spinner" unicode="&#xe864;" d="M294 72q0-29-21-50t-51-21q-29 0-50 21t-21 50q0 30 21 51t50 21 51-21 21-51z m277-115q0-29-20-50t-51-21-50 21-21 50 21 51 50 21 51-21 20-51z m-392 393q0-30-21-50t-51-21-50 21-21 50 21 51 50 20 51-20 21-51z m670-278q0-29-21-50t-50-21q-30 0-51 21t-20 50 20 51 51 21 50-21 21-51z m-538 556q0-37-26-63t-63-26-63 26-26 63 26 63 63 26 63-26 26-63z m653-278q0-30-21-50t-50-21-51 21-21 50 21 51 51 20 50-20 21-51z m-357 393q0-45-31-76t-76-31-76 31-31 76 31 76 76 31 76-31 31-76z m296-115q0-52-37-88t-88-37q-52 0-88 37t-37 88q0 51 37 88t88 37q51 0 88-37t37-88z" horiz-adv-x="1000" />

<glyph glyph-name="plug" unicode="&#xe865;" d="M979 597q21-21 21-50t-21-51l-223-223 83-84-89-89q-91-91-217-104t-230 56l-202-202h-101v101l202 202q-69 103-56 230t104 217l89 89 84-83 223 223q21 21 51 21t50-21 21-50-21-51l-223-223 131-131 223 223q22 21 51 21t50-21z" horiz-adv-x="1000" />

<glyph glyph-name="print-1" unicode="&#xe866;" d="M866 564c40 0 75-35 75-78l0-366c0-42-35-77-75-77l-76 0 34-153-691 0 27 153-82 0c-45 0-78 35-78 77l0 366c0 43 33 78 78 78l96 0 0 117 34 0 0 129 527 0 0-129 34 0 0-117 97 0z m-623 199l0-292 457 0 0 292-457 0z m-113-389c30 0 55 24 55 54 0 28-25 53-55 53-29 0-54-25-54-53 0-30 25-54 54-54z m63-438l567 0-47 242-484 0z m252 113l-139 0 0 35 139 0 0-35z m198 0l-139 0 0 35 139 0 0-35z" horiz-adv-x="941" />

<glyph glyph-name="inbox" unicode="&#xe867;" d="M571 314h176q0 2-1 5t-2 4l-118 277h-395l-118-277q-1-1-2-4t-1-5h176l53-107h179z m286-16v-269q0-15-10-25t-26-11h-785q-15 0-25 11t-11 25v269q0 34 14 68l133 308q5 14 20 24t29 9h465q14 0 29-9t20-24l133-308q14-34 14-68z" horiz-adv-x="857.1" />

<glyph glyph-name="puzzle" unicode="&#xe868;" d="M909 567h-85c-35 0-43 28-25 49 30 34 14 84-39 87-54-2-69-53-40-86 18-20 10-49-24-49h-83c-25 0-46-20-46-46v-84-23c-1 0-1 0-2 0h-153v42c0 4-5 6-9 3l-100-82c-3-3-3-8 0-11l100-82c4-3 9 0 9 4v43h153c1 0 1 0 2 0v-25-84c0-25 20-46 45-46h83c35 0 43-28 25-48-30-34-14-84 39-86 54 2 70 53 40 86-18 20-10 48 24 48h84c26 0 47 21 47 47v59 26c-1 34-30 42-49 24-34-30-85-14-87 39 2 54 53 69 87 40 19-18 48-10 49 23v23 61 2c0 25-20 46-45 46z m-431-1h-85c-35 0-43 30-25 49 30 34 14 85-39 87-53-2-69-52-39-86 17-19 9-49-25-49h-83c-26 0-46-21-46-46v-85c0-34-29-42-49-24-34 30-85 14-87-40 2-53 53-69 86-39 20 18 49 10 49-25v-84c0-25 21-45 46-45h83c34 0 42-29 25-49-30-32-14-84 39-86 53 2 69 53 39 86-17 20-10 49 25 49h84c26 0 47 21 47 46v60 4h-68c-1-27-23-48-49-48-12 0-23 4-32 11l-100 82c-11 10-18 23-18 39 0 16 7 30 18 40l101 82c9 7 20 11 32 11 27 0 48-22 49-49h67v1 61 1c0 26-20 46-45 46z" horiz-adv-x="1000" />

<glyph glyph-name="link" unicode="&#xe869;" d="M813 171q0 23-16 38l-116 116q-16 16-38 16-24 0-40-18 1-1 10-10t12-12 9-11 7-14 2-15q0-23-16-38t-38-16q-8 0-15 2t-14 7-11 9-12 12-10 10q-19-17-19-40 0-23 16-38l115-116q15-15 38-15 22 0 38 15l82 81q16 16 16 37z m-393 394q0 22-15 38l-115 115q-16 16-38 16-22 0-38-15l-82-82q-16-15-16-37 0-22 16-38l116-116q15-15 38-15 23 0 40 17-2 2-11 11t-12 12-8 10-7 14-2 16q0 22 15 38t38 15q9 0 16-2t14-7 11-8 12-12 10-11q18 17 18 41z m500-394q0-66-48-113l-82-81q-46-47-113-47-68 0-114 48l-115 115q-46 47-46 114 0 68 49 116l-49 49q-48-49-116-49-67 0-114 47l-116 116q-47 47-47 114t47 113l82 82q47 46 114 46 67 0 114-47l115-116q46-46 46-113 0-69-49-117l49-49q48 49 116 49 67 0 114-47l116-116q47-47 47-114z" horiz-adv-x="928.6" />

<glyph glyph-name="eraser" unicode="&#xf12d;" d="M500 64l188 215h-429l-188-215h429z m565 601q9-19 6-40t-17-36l-500-572q-22-24-54-24h-429q-21 0-38 11t-27 31q-8 19-5 40t17 36l500 572q21 24 53 24h429q21 0 39-11t26-31z" horiz-adv-x="1071.4" />

<glyph glyph-name="calc" unicode="&#xf1ec;" d="M214-7q0 29-21 50t-50 21-51-21-21-50 21-51 51-21 50 21 21 51z m215 0q0 29-21 50t-51 21-50-21-21-50 21-51 50-21 51 21 21 51z m-215 214q0 30-21 51t-50 21-51-21-21-51 21-50 51-21 50 21 21 50z m429-214q0 29-21 50t-51 21-50-21-21-50 21-51 50-21 51 21 21 51z m-214 214q0 30-21 51t-51 21-50-21-21-51 21-50 50-21 51 21 21 50z m-215 214q0 30-21 51t-50 21-51-21-21-51 21-50 51-21 50 21 21 50z m429-214q0 30-21 51t-51 21-50-21-21-51 21-50 50-21 51 21 21 50z m-214 214q0 30-21 51t-51 21-50-21-21-51 21-50 50-21 51 21 21 50z m428-428v214q0 29-21 50t-50 22-50-22-22-50v-214q0-29 22-50t50-22 50 22 21 50z m-214 428q0 30-21 51t-51 21-50-21-21-51 21-50 50-21 51 21 21 50z m214 179v143q0 14-10 25t-26 11h-714q-14 0-25-11t-11-25v-143q0-14 11-25t25-11h714q15 0 26 11t10 25z m0-179q0 30-21 51t-50 21-51-21-21-51 21-50 51-21 50 21 21 50z m72 358v-858q0-29-22-50t-50-21h-786q-29 0-50 21t-21 50v858q0 29 21 50t50 21h786q29 0 50-21t22-50z" horiz-adv-x="1000" />
</font>
</defs>
</svg>
