<?xml version="1.0" encoding="utf-8"?>
<!-- Generator: Adobe Illustrator 21.1.0, SVG Export Plug-In . SVG Version: 6.00 Build 0)  -->
<svg version="1.1" id="Layer_1" xmlns="http://www.w3.org/2000/svg" xmlns:xlink="http://www.w3.org/1999/xlink" x="0px" y="0px"
	 viewBox="0 0 504 100" style="enable-background:new 0 0 504 100;" xml:space="preserve">
<style type="text/css">
	.st0{fill:#555759;}
	.st1{fill:#FFFFFF;}
	.st2{fill:#0069A6;}
</style>
<g>
	<g>
		<g>
			<g>
				<path class="st0" d="M492.2,35.3h-1.9v-1.1h5.3v1.1h-1.9v5.4h-1.4V35.3z"/>
				<path class="st0" d="M497.1,34.2h2.3l1.4,4.7l1.5-4.7h2.2v6.5h-1.4v-5.6l-1.8,5.6h-1.2l-1.7-5.6v5.6h-1.3V34.2z"/>
			</g>
		</g>
	</g>
	<g>
		<g>
			<g>
				<path class="st1" d="M101.3,50.2c0,27.6-22.6,50-50.5,50c-27.9,0-50.5-22.4-50.5-50c0-27.6,22.6-50,50.5-50
					C78.7,0.2,101.3,22.6,101.3,50.2z"/>
			</g>
			<g>
				<path class="st2" d="M93.6,23.6c-2.4-3.8-5.3-7.2-8.6-10.2c-22.1-6.2-46.2-6.2-68.3,0c-3.3,3-6.2,6.4-8.6,10.2
					C35.4,16.7,66.3,16.7,93.6,23.6z"/>
				<path class="st2" d="M57,30.7c3.1-4.6,5.4-7.7,6.5-9.2c-19.4-1.4-39.2,0.4-57.3,5.3c-1.3,2.5-2.5,5.1-3.4,7.9
					C19.9,31.6,38.5,30.3,57,30.7z"/>
				<path class="st2" d="M49.3,69.8c-2,2.9-4.4,6.2-6.8,9.5c18,0.8,36.2-1,52.9-5.6c1.3-2.5,2.5-5.1,3.4-7.8c-15.1,2.6-31.5,4-48,4
					C50.3,69.8,49.8,69.8,49.3,69.8z"/>
				<path class="st2" d="M55.3,33.2C37,33,18.7,34.3,2,37.4c-0.6,2.2-1,4.5-1.3,6.9c15.1-0.9,31.6-1.4,48.2-1.5
					C51.2,39.2,53.4,36,55.3,33.2z"/>
				<path class="st2" d="M40.7,81.7c-2.8,3.8-5.4,7.1-6.7,8.8c17,2.2,34.5,1.1,51-3.5c3.3-3,6.2-6.4,8.6-10.2
					C79.9,80.3,65.4,82,50.8,82C47.4,82,44.1,81.9,40.7,81.7z"/>
				<path class="st2" d="M80.1,9.4c-8.2-5.8-18.3-9.2-29.2-9.2s-21,3.4-29.2,9.2C40.7,5,61,5,80.1,9.4z"/>
				<path class="st2" d="M59.2,55c14.5-0.1,28.8-0.6,42-1.4c0.1-1.1,0.1-2.2,0.1-3.3c0-1.1-0.1-2.2-0.1-3.3
					c-11.4-0.7-23.6-1.2-36.1-1.4C63.2,48.6,61.4,51.5,59.2,55z"/>
				<path class="st2" d="M66.8,42.9c11.8,0.2,23.4,0.6,34.2,1.3c-0.3-2.4-0.7-4.7-1.3-6.9c-8.6-1.6-17.7-2.7-27-3.4
					C70.2,37.5,68.4,40.4,66.8,42.9z"/>
				<path class="st2" d="M47.2,45.4c-9.7,0-19.3,0.2-28.7,0.6c0.9,1.9,2.7,5.4,4.5,8.6c5.9,0.2,11.9,0.3,17.9,0.4
					C42.8,52.2,44.8,49,47.2,45.4z"/>
				<path class="st2" d="M24.5,57.2c0.1,0.2,0.2,0.4,0.3,0.6c1.5,2.4,3.2,5,4.6,7.1c0.4,0.6,0.8,1.1,1.1,1.6
					c0.9,1.3,1.4,2.1,1.4,2.1s0.4-0.7,1.3-1.9c0.3-0.5,0.7-1.1,1.2-1.8c1.2-1.8,2.8-4.3,4.8-7.4C34.3,57.5,29.4,57.4,24.5,57.2z"/>
				<path class="st2" d="M51.1,67.2c16.7,0,33.3-1.4,48.6-4.2c0.6-2.2,1-4.6,1.3-6.9c-13.7,0.8-28.5,1.3-43.5,1.4
					C55.8,60.3,53.7,63.4,51.1,67.2z"/>
				<path class="st2" d="M9.8,56.7c-3.1-0.2-6.1-0.3-9.1-0.5C1,58.5,1.4,60.8,2,63c4,0.7,8,1.3,12.2,1.9C12.4,61.8,11,59.1,9.8,56.7
					z"/>
				<path class="st2" d="M22.3,76.9c-2.5-3.3-3.9-5.3-6.4-9.1c-4.5-0.5-8.8-1.2-13.1-1.9c0.9,2.7,2,5.3,3.4,7.8
					c5.3,1.4,10.8,2.6,16.3,3.5C22.5,77.1,22.4,77,22.3,76.9z"/>
				<path class="st2" d="M24.8,80.2c-5.7-0.8-11.3-1.9-16.7-3.3c2.4,3.8,5.3,7.2,8.6,10.2c5.3,1.5,10.8,2.6,16.3,3.4
					C29.6,86.5,27.1,83.2,24.8,80.2z"/>
				<path class="st2" d="M21.6,91c8.2,5.8,18.3,9.2,29.2,9.2s21-3.4,29.2-9.2c-9.6,2.2-19.4,3.3-29.2,3.3S31.2,93.2,21.6,91z"/>
			</g>
		</g>
		<g>
			<path class="st0" d="M486.6,15.4c0,3.9-3.1,6.9-6.9,6.9c-3.7,0-6.9-3-6.9-6.9c0-3.7,3.1-6.9,6.9-6.9
				C483.5,8.5,486.6,11.7,486.6,15.4z M484.5,91h-9.7V34.2h9.7V91z"/>
			<path class="st0" d="M218,64.7c0.1,10.5,7.6,18.9,18.6,18.9c8.2,0,13.5-4.9,17.3-11.7l8.2,4.7c-5.4,10.1-14.6,15.9-26.2,15.9
				c-16.9,0-27.8-12.9-27.8-29.2c0-16.8,9.8-30.7,27.5-30.7c18.2,0,27.9,15.1,26.9,32H218z M252.4,56.4c-1.3-8.2-8.2-14.8-16.7-14.8
				c-8.3,0-16.1,6.6-17.3,14.8H252.4z"/>
			<path class="st0" d="M267.7,62.7c0-16.7,13.2-30,29.8-30s29.8,13.4,29.8,30c0,16.7-13.3,29.8-29.8,29.8S267.7,79.4,267.7,62.7z
				 M277.4,62.6c0,11.6,8.2,21,20.2,21c11.9,0,20.2-9.4,20.2-21c0-11.5-8.2-21-20.2-21C285.6,41.6,277.4,51.1,277.4,62.6z"/>
			<path class="st0" d="M344.5,40.4h0.2c3-4.7,7.8-7.7,13.6-7.7c6.6,0,12.7,3.5,15.7,9.4c3.4-6.3,10.1-9.4,17-9.4
				c14.5,0,18.1,11.8,18.1,23.8V91h-9.7V58c0-7.4-0.5-16.4-10.4-16.4c-11.1,0-12.3,10.7-12.3,19.3v30h-9.7V58.7
				c0-7-0.8-17.1-10.1-17.1c-11.3,0-12.6,11.5-12.6,20V91h-9.7V34.2h9.7V40.4z"/>
			<path class="st0" d="M428.8,41.1h0.2c4-5.4,9.2-8.4,16.2-8.4c15.7,0,19.3,11.3,19.3,24.6V91h-9.7V59c0-9.2-0.7-17.4-11.9-17.4
				c-13.3,0-14.1,12.3-14.1,22.4V91h-9.7V34.2h9.7V41.1z"/>
			<g>
				<g>
					<path class="st0" d="M192.6,78.7c-7.4,8.6-18.8,13.8-30.5,13.8c-11.2,0-21.8-4.4-29.9-12.5c-8.1-8.1-12.5-18.7-12.5-29.9
						c0-23.6,19.3-42.9,43-42.9c14,0,25.8,6,34.9,17.8l0.2,0.2l-7,6.6l-0.2-0.3c-7.2-10.2-16.6-15.3-27.9-15.3
						c-18.3,0-33.2,15.2-33.2,33.9c0,8.6,3.4,16.7,9.5,23c6.5,6.5,15.1,10.4,23.1,10.4c13.9,0,28.8-10.1,28.9-25.1h-24.3v-9h34.7
						v0.3C201.4,61.2,200,70.1,192.6,78.7z"/>
				</g>
			</g>
		</g>
	</g>
</g>
</svg>
