<?xml version="1.0" encoding="UTF-8" standalone="no"?>
<svg width="150px" height="40px" viewBox="0 0 150 40" version="1.1" xmlns="http://www.w3.org/2000/svg" xmlns:xlink="http://www.w3.org/1999/xlink">
    <!-- Generator: Sketch 42 (36781) - http://www.bohemiancoding.com/sketch -->
    <title>hover-logo-comb-bue</title>
    <desc>Created with Sketch.</desc>
    <defs>
        <filter x="-50%" y="-50%" width="200%" height="200%" filterUnits="objectBoundingBox" id="filter-1">
            <feGaussianBlur stdDeviation="3.73333333" in="SourceGraphic"></feGaussianBlur>
        </filter>
        <filter x="-50%" y="-50%" width="200%" height="200%" filterUnits="objectBoundingBox" id="filter-2">
            <feGaussianBlur stdDeviation="1.2" in="SourceGraphic"></feGaussianBlur>
        </filter>
    </defs>
    <g id="Symbols" stroke="none" stroke-width="1" fill="none" fill-rule="evenodd">
        <g id="hover-logo-comb-bue">
            <g id="hover-logo-comb-horizontal">
                <g id="hover-logo-blue-copy" transform="translate(51.000000, 0.000000)">
                    <path d="M13.4226405,20.1538462 L6.69009081,20.1538462 L6.69009081,10 L2,10 L2,35 L6.69009081,35 L6.69009081,24.9230769 L13.4226405,24.9230769 L13.4226405,35 L18.1127313,35 L18.1127313,10 L13.4226405,10 L13.4226405,20.1538462 L13.4226405,20.1538462 Z M50.0489362,27.9230769 L45.9993269,10 L41.2747827,10 L47.2742039,35 L52.8986613,35 L58.8980826,10 L54.1735383,10 L50.0489362,27.9230769 L50.0489362,27.9230769 Z M62.9262654,35 L76.0178596,35 L76.0178596,30.2307692 L67.5644302,30.2307692 L67.5644302,24.9230769 L74.0055507,24.9230766 L74.0055507,20.1538459 L67.5644302,20.1538462 L67.5644302,14.8461538 L76.0178596,14.8461538 L76.0178596,10 L62.9262654,10 L62.9262654,35 L62.9262654,35 Z M96.7703349,17.5384615 L96.7703349,17.3846154 C96.7703349,13.3076923 93.4784689,10 89.4210526,10 L81,10 L81,35 L85.7464115,35 L85.7464115,24.8461538 L88.4258373,24.8461538 L92.2535885,35 L97,35 L92.9425837,24 C95.2392344,22.7692308 96.7703349,20.3076923 96.7703349,17.5384615 L96.7703349,17.5384615 L96.7703349,17.5384615 Z M91.9830244,17.6191495 C91.9830244,19.0057581 90.8423735,20.1612652 89.4735924,20.1612652 L85.8235095,20.1612652 L85.8235095,15 L89.4735924,15 C90.8423735,15 91.9830244,16.1555071 91.9830244,17.5421157 L91.9830244,17.6191495 L91.9830244,17.6191495 Z" id="Shape" fill="#0C9DE2"></path>
                    <g id="shadow-copy" opacity="0.758512127" transform="translate(20.333333, 32.500000)" fill="#000000">
                        <polygon id="Path-7" fill-opacity="0.3" opacity="0.3" filter="url(#filter-1)" points="10.3485225 0.0318488485 0.030300869 2.96395044 10.4106542 5.16666667 20.9876723 2.80024701"></polygon>
                        <polygon id="Path-7-Copy" fill-opacity="0.85" filter="url(#filter-2)" points="10.3683011 0.417776276 1.32188981 1.9132528 10.4227745 3.03671674 19.6960833 1.8297582"></polygon>
                    </g>
                    <path d="M30.25,1.5 C34.8064234,1.5 38.5,5.17853963 38.5,9.71641341 L38.5,20.2835866 C38.5,24.8214604 34.8064234,28.5 30.25,28.5 C25.6935766,28.5 22,24.8214604 22,20.2835866 L22,9.71641341 C22,5.17853963 25.6935766,1.5 30.25,1.5 Z M33.5,20.3771223 L33.5,9.1221158 C33.5,7.39801916 32.0941183,6 30.3595592,6 L30.1404408,6 C28.4058817,6 27,7.39801916 27,9.1221158 L27,20.3771223 C27,22.1019808 28.4058817,23.5 30.1404408,23.5 L30.3595592,23.5 C32.0941183,23.5 33.5,22.1019808 33.5,20.3771223 Z" id="Page-1" fill="#0C9DE2"></path>
                </g>
                <g id="App-icon" transform="translate(0.000000, 1.500000)">
                    <path d="M8.49145233,1.62028613 L8.964745,0.0621373945 L29.2474324,6.14474552 L38.4505355,11.0047468 C38.4505355,11.0047468 37.5972393,22.8219937 36.3588044,23.4137988 C35.1203696,24.0056039 19.4888738,34.3499802 19.4888738,34.3499802 C19.4888738,34.3499802 13.3061139,30.0230749 13.3061139,29.2667128 C13.3061139,28.5103507 7.4977945,15.3582213 7.4977945,15.3582213 L8.49145233,1.62028613 Z" id="Path-17" fill="#68BCE2"></path>
                    <path d="M32.8083828,4.56143349 C32.5787887,4.31233803 32.2741318,4.14445696 31.9409184,4.08350548 L8.98028033,0.0443505477 C9.01560879,0.0511862285 9.07671967,0.242178404 9.11025314,0.2571518 C9.15031381,0.275054773 9.18906904,0.120763693 9.22390795,0.151198748 L19.0643912,8.74991549 C19.0912343,8.77343349 19.1130188,8.80085759 19.1327636,8.8296651 C19.1343138,8.83235055 19.135864,8.83503599 19.1373326,8.83780282 C19.1381485,8.83902347 19.139454,8.83975587 19.1401067,8.84097653 C19.141249,8.84292958 19.1416569,8.84520814 19.142636,8.84724257 C19.1470418,8.85627543 19.1504686,8.86530829 19.1537322,8.87450391 C19.1569142,8.88296714 19.1606674,8.89086072 19.1629519,8.89932394 L38.3658828,11.0238372 C38.4763556,11.0353928 38.6530795,11.1054585 38.7783201,11.2497402 C38.7793808,11.2501471 38.7819916,11.2516119 38.7827259,11.2519374 L32.8083828,4.56143349" id="Fill-1" fill="#61BCE6"></path>
                    <path d="M38.7783201,11.2497402 C38.6530795,11.1054585 38.4763556,11.0353928 38.3658828,11.0238372 L19.3296402,8.91706416 L19.329477,8.91706416 L19.2307531,8.90615962 L19.23059,8.90648513 L19.1629519,8.89932394 C19.1771485,8.95205634 19.1765774,9.00096401 19.1765774,9.00096401 L19.1765774,34.6325696 C19.9322636,34.6244319 20.752977,34.4777903 21.6806548,34.2367512 L37.9006569,29.8193552 C38.5054017,29.6541596 38.9245293,29.1059218 38.9245293,28.4797246 L38.9245293,11.6492207 C38.9245293,11.477108 38.8628473,11.3469859 38.7783201,11.2497402" id="Fill-2" fill="#2DA0DB"></path>
                    <path d="M19.1765774,9.00096401 C19.1765774,9.00096401 19.1771485,8.95205634 19.1629519,8.89932394 C19.1130188,8.80085759 19.0912343,8.77343349 19.0643912,8.74991549 L9.22390795,0.151198748 C9.18735565,0.114253521 9.15006904,0.0993615023 9.11025314,0.080970266 C9.03355858,0.045571205 8.95270293,0.0370266041 8.88669665,0.041827856 C8.76161925,0.0555805947 8.64943305,0.113195618 8.57110669,0.214184664 L0.500064854,10.5876557 C0.224453975,10.9409953 0.0754707113,11.3762817 0.0754707113,11.8243443 L0.0754707113,28.6670548 C0.0754707113,29.2105728 0.437077406,29.6877684 0.960476987,29.8347355 L16.7917845,34.2826479 C17.4795879,34.5028545 18.2381297,34.6277684 19.0849519,34.6319186 L19.1765774,34.6325696 L19.1765774,9.11082316 L19.1765774,9.00096401 Z" id="Fill-3" fill="#A3D7F1"></path>
                </g>
            </g>
        </g>
    </g>
</svg>