<svg id="artwork_CL_Logo_vert_Master" data-name="artwork CL Logo vert Master" xmlns="http://www.w3.org/2000/svg" viewBox="0 0 367.99 309.95"><defs><style>.cls-1{fill:none;}.cls-2{fill:#e10600;}.cls-3{fill:#5a5a5a;}.cls-4{fill:#828282;}</style></defs><title>CL_Logo_V_rgb</title><g id="rgb_vert"><rect id="clearspace" class="cls-1" y="0.04" width="367.99" height="309.87"/><polygon class="cls-2" points="182.75 40.13 113.31 80.22 182.75 120.32 252.2 80.22 182.75 40.13"/><polygon class="cls-3" points="113.31 160.42 182.75 200.51 182.75 120.32 113.31 160.42"/><polygon class="cls-4" points="182.75 120.32 182.75 120.32 182.75 200.51 252.2 160.42 182.75 120.32"/><polygon class="cls-4" points="182.75 120.32 113.31 80.22 113.31 160.42 182.75 120.32 182.75 120.32"/><path class="cls-2" d="M40.13,240.56v-.11c0-11.41,8.54-20.75,20.69-20.75A20.91,20.91,0,0,1,76.53,226L72,231.16c-3.21-3-6.65-5-11.23-5-7.63,0-13.25,6.31-13.25,14.16v.12c0,7.85,5.57,14.22,13.25,14.22,4.93,0,8.08-1.95,11.52-5.16l4.53,4.58c-4.19,4.36-8.77,7.11-16.28,7.11C48.84,261.2,40.13,252.09,40.13,240.56Zm40.76,5v-.11a16.14,16.14,0,0,1,32.27-.12v.12A15.82,15.82,0,0,1,96.94,261.2,15.65,15.65,0,0,1,80.89,245.55Zm25.34,0v-.11c0-5.34-3.85-9.75-9.29-9.75s-9.12,4.36-9.12,9.63v.12c0,5.27,3.84,9.69,9.23,9.69C102.67,255.13,106.23,250.77,106.23,245.55Zm13.41-15.3h6.94v6.82c1.89-4.53,5.38-7.63,10.72-7.4V237h-.41c-6.07,0-10.31,4-10.31,12v11.52h-6.94Zm22.41,15.24v-.11c0-8.66,6.14-15.76,14.79-15.76,9.63,0,14.51,7.56,14.51,16.28,0,.63-.06,1.26-.12,1.94H149c.74,4.93,4.24,7.69,8.71,7.69a11,11,0,0,0,8.2-3.61l4.07,3.61a15.31,15.31,0,0,1-12.38,5.67C148.82,261.2,142.05,254.84,142.05,245.49Zm22.42-2.23c-.46-4.47-3.1-8-7.68-8-4.25,0-7.23,3.27-7.86,8Z"/><path class="cls-4" d="M179.14,220.38h7.05v33.71h21.1v6.42H179.14Zm30.33,25.17v-.12a16.14,16.14,0,0,1,32.28-.11v.11a15.83,15.83,0,0,1-16.23,15.77A15.65,15.65,0,0,1,209.47,245.55Zm25.34,0v-.12c0-5.33-3.84-9.74-9.29-9.74s-9.11,4.35-9.11,9.63v.11c0,5.28,3.84,9.69,9.23,9.69C231.26,255.12,234.81,250.76,234.81,245.55Zm12.89,20.64,2.58-5.22a19.9,19.9,0,0,0,10.78,3.21c6.19,0,9.57-3.21,9.57-9.29v-2.35c-2.52,3.27-5.67,5.56-10.66,5.56-7.11,0-13.76-5.27-13.76-14.16v-.11c0-9,6.71-14.22,13.76-14.22a13.07,13.07,0,0,1,10.61,5.16v-4.53h6.93v24.08c0,5.1-1.31,8.88-3.84,11.41-2.75,2.75-7,4.07-12.44,4.07A26.08,26.08,0,0,1,247.7,266.19Zm23-22.3v-.12c0-4.93-4.07-8.31-8.88-8.31s-8.6,3.32-8.6,8.31v.12a8.25,8.25,0,0,0,8.6,8.31C266.62,252.2,270.69,248.81,270.69,243.89ZM285.77,219h7.45v6.6h-7.45Zm.28,11.24H293v30.27h-6.94Zm14.05,15.31v-.12a15.62,15.62,0,0,1,15.76-15.82,15.28,15.28,0,0,1,12.1,5.22l-4.36,4.64c-2.12-2.23-4.36-3.78-7.8-3.78-5,0-8.77,4.35-8.77,9.63v.11c0,5.39,3.73,9.69,9.06,9.69,3.27,0,5.68-1.49,7.86-3.73l4.18,4.13a15.87,15.87,0,0,1-28-10Z"/><path class="cls-4" d="M331.53,229.56v0a4.64,4.64,0,1,1,9.28,0v0a4.64,4.64,0,1,1-9.28,0Zm8.74,0v0a4.07,4.07,0,0,0-4.1-4.13,4.12,4.12,0,0,0-4.11,4.15v0a4.11,4.11,0,1,0,8.21,0Zm-5.91-2.45h2.13c1,0,1.81.51,1.81,1.49a1.43,1.43,0,0,1-1.1,1.45l1.26,1.78h-1.09l-1.12-1.62h-1v1.62h-.9Zm2.05,2.35c.61,0,1-.32,1-.77s-.35-.78-1-.78h-1.15v1.55Z"/></g></svg>